<svg width="145" height="100" viewBox="0 0 145 100" fill="none" xmlns="http://www.w3.org/2000/svg">
<path d="M0.656 5.528C0.656 4.16267 1.08267 2.968 1.936 1.944C2.78933 0.920001 4.06933 0.408001 5.776 0.408001H17.04C19.088 0.408001 20.7093 0.834668 21.904 1.688C23.0987 2.712 24.2933 4.248 25.488 6.296L72.336 74.648L119.184 6.296C120.549 4.248 121.829 2.712 123.024 1.688C124.219 0.834668 125.84 0.408001 127.888 0.408001H139.152C140.859 0.408001 142.139 0.920001 142.992 1.944C143.845 2.968 144.272 4.16267 144.272 5.528C144.272 6.552 143.931 7.66133 143.248 8.856C142.736 10.0507 142.224 10.9893 141.712 11.672L86.416 92.056C84.5387 94.7867 82.7467 96.664 81.04 97.688C79.3333 98.8827 77.2 99.48 74.64 99.48H70.288C67.8987 99.48 65.7653 98.8827 63.888 97.688C62.1813 96.664 60.3893 94.7867 58.512 92.056L3.216 11.672C2.704 10.9893 2.10667 10.0507 1.424 8.856C0.912 7.66133 0.656 6.552 0.656 5.528Z" fill="white"/>
</svg>
