<svg width="469" height="312" viewBox="0 0 469 312" fill="none" xmlns="http://www.w3.org/2000/svg">
<g clip-path="url(#clip0_0_1)">
<path d="M7.41677 299.093L4.67413 306.51H3.51527L0.772627 299.093H2.00875L4.05607 305.003H4.13333L6.18065 299.093H7.41677ZM12.3782 296.621V306.51H11.1807V297.876H11.1227L8.70842 299.479V298.262L11.1807 296.621H12.3782ZM15.4878 306.587C15.2496 306.587 15.0451 306.502 14.8745 306.331C14.7039 306.16 14.6186 305.956 14.6186 305.718C14.6186 305.48 14.7039 305.275 14.8745 305.105C15.0451 304.934 15.2496 304.849 15.4878 304.849C15.726 304.849 15.9304 304.934 16.101 305.105C16.2716 305.275 16.3569 305.48 16.3569 305.718C16.3569 305.875 16.3167 306.02 16.2362 306.152C16.1589 306.284 16.0543 306.391 15.9223 306.471C15.7936 306.548 15.6487 306.587 15.4878 306.587ZM21.2628 306.645C20.5353 306.645 19.9156 306.447 19.4038 306.051C18.8919 305.652 18.5008 305.074 18.2304 304.317C17.96 303.558 17.8248 302.64 17.8248 301.565C17.8248 300.496 17.96 299.584 18.2304 298.827C18.504 298.068 18.8968 297.488 19.4086 297.089C19.9236 296.687 20.5417 296.485 21.2628 296.485C21.9838 296.485 22.6003 296.687 23.1121 297.089C23.6272 297.488 24.0199 298.068 24.2903 298.827C24.5639 299.584 24.7007 300.496 24.7007 301.565C24.7007 302.64 24.5655 303.558 24.2951 304.317C24.0247 305.074 23.6336 305.652 23.1218 306.051C22.6099 306.447 21.9903 306.645 21.2628 306.645ZM21.2628 305.583C21.9838 305.583 22.544 305.235 22.9431 304.54C23.3423 303.844 23.5419 302.853 23.5419 301.565C23.5419 300.709 23.4501 299.98 23.2666 299.378C23.0864 298.776 22.8256 298.317 22.4844 298.002C22.1464 297.686 21.7392 297.528 21.2628 297.528C20.5481 297.528 19.9896 297.881 19.5872 298.586C19.1849 299.288 18.9837 300.281 18.9837 301.565C18.9837 302.421 19.0738 303.149 19.2541 303.748C19.4343 304.346 19.6935 304.802 20.0315 305.114C20.3727 305.426 20.7831 305.583 21.2628 305.583ZM27.0402 306.587C26.802 306.587 26.5976 306.502 26.4269 306.331C26.2563 306.16 26.171 305.956 26.171 305.718C26.171 305.48 26.2563 305.275 26.4269 305.105C26.5976 304.934 26.802 304.849 27.0402 304.849C27.2784 304.849 27.4828 304.934 27.6534 305.105C27.824 305.275 27.9093 305.48 27.9093 305.718C27.9093 305.875 27.8691 306.02 27.7886 306.152C27.7114 306.284 27.6067 306.391 27.4747 306.471C27.346 306.548 27.2011 306.587 27.0402 306.587ZM29.7031 304.482V303.497L34.0489 296.621H34.7635V298.147H34.2807L30.9972 303.342V303.419H36.8495V304.482H29.7031ZM34.3579 306.51V304.182V303.724V296.621H35.4975V306.51H34.3579ZM44.6851 306.683C44.2151 306.683 43.7886 306.595 43.4055 306.418C43.0224 306.238 42.7182 305.978 42.4929 305.64C42.2675 305.299 42.1549 304.887 42.1549 304.404C42.1549 303.979 42.2386 303.635 42.406 303.371C42.5734 303.104 42.7971 302.895 43.0771 302.743C43.3572 302.592 43.6662 302.479 44.0042 302.405C44.3455 302.328 44.6883 302.267 45.0327 302.222C45.4834 302.164 45.8488 302.12 46.1288 302.091C46.4121 302.059 46.6181 302.006 46.7469 301.932C46.8789 301.858 46.9448 301.729 46.9448 301.546V301.507C46.9448 301.031 46.8145 300.661 46.5537 300.397C46.2962 300.133 45.9051 300.001 45.3804 300.001C44.8364 300.001 44.4098 300.12 44.1008 300.358C43.7918 300.596 43.5745 300.851 43.4489 301.121L42.3673 300.735C42.5605 300.284 42.818 299.933 43.1399 299.682C43.465 299.428 43.8191 299.251 44.2022 299.151C44.5885 299.048 44.9683 298.996 45.3418 298.996C45.58 298.996 45.8536 299.025 46.1626 299.083C46.4749 299.138 46.7758 299.252 47.0656 299.426C47.3585 299.6 47.6015 299.862 47.7947 300.213C47.9878 300.564 48.0844 301.034 48.0844 301.623V306.51H46.9448V305.505H46.8869C46.8096 305.666 46.6809 305.838 46.5006 306.022C46.3203 306.205 46.0805 306.362 45.7812 306.49C45.4818 306.619 45.1164 306.683 44.6851 306.683ZM44.8589 305.66C45.3096 305.66 45.6894 305.571 45.9984 305.394C46.3107 305.217 46.5457 304.989 46.7034 304.709C46.8644 304.429 46.9448 304.134 46.9448 303.825V302.782C46.8966 302.84 46.7903 302.893 46.6262 302.941C46.4652 302.986 46.2785 303.027 46.066 303.062C45.8568 303.094 45.6524 303.123 45.4528 303.149C45.2564 303.171 45.0971 303.191 44.9748 303.207C44.6786 303.246 44.4018 303.308 44.1443 303.395C43.89 303.479 43.6839 303.606 43.5262 303.777C43.3717 303.944 43.2944 304.173 43.2944 304.462C43.2944 304.858 43.4409 305.158 43.7338 305.36C44.03 305.56 44.405 305.66 44.8589 305.66ZM55.4178 300.754L54.3942 301.044C54.3298 300.873 54.2348 300.707 54.1093 300.546C53.9869 300.382 53.8196 300.247 53.6071 300.141C53.3946 300.034 53.1226 299.981 52.7911 299.981C52.3372 299.981 51.9589 300.086 51.6563 300.295C51.357 300.501 51.2073 300.764 51.2073 301.082C51.2073 301.366 51.3103 301.589 51.5163 301.753C51.7223 301.918 52.0442 302.054 52.482 302.164L53.583 302.434C54.2461 302.595 54.7402 302.842 55.0653 303.173C55.3905 303.501 55.553 303.925 55.553 304.443C55.553 304.868 55.4307 305.248 55.186 305.583C54.9446 305.917 54.6066 306.181 54.172 306.374C53.7375 306.568 53.2321 306.664 52.6559 306.664C51.8994 306.664 51.2733 306.5 50.7775 306.172C50.2818 305.843 49.9679 305.364 49.836 304.733L50.9176 304.462C51.0206 304.861 51.2153 305.161 51.5018 305.36C51.7915 305.56 52.1698 305.66 52.6366 305.66C53.1677 305.66 53.5894 305.547 53.9016 305.322C54.2171 305.093 54.3748 304.82 54.3748 304.501C54.3748 304.243 54.2847 304.028 54.1044 303.854C53.9242 303.677 53.6473 303.545 53.2739 303.458L52.0378 303.168C51.3586 303.007 50.8596 302.758 50.5409 302.42C50.2255 302.079 50.0677 301.652 50.0677 301.14C50.0677 300.722 50.1852 300.352 50.4202 300.03C50.6584 299.708 50.982 299.455 51.3908 299.272C51.8028 299.088 52.2696 298.996 52.7911 298.996C53.525 298.996 54.1012 299.157 54.5197 299.479C54.9414 299.801 55.2408 300.226 55.4178 300.754ZM60.4939 299.093V300.059H56.6503V299.093H60.4939ZM57.7706 297.316H58.9101V304.385C58.9101 304.707 58.9568 304.948 59.0501 305.109C59.1467 305.267 59.269 305.373 59.4171 305.428C59.5684 305.48 59.7277 305.505 59.8951 305.505C60.0207 305.505 60.1237 305.499 60.2042 305.486C60.2846 305.47 60.349 305.457 60.3973 305.447L60.6291 306.471C60.5518 306.5 60.444 306.529 60.3056 306.558C60.1671 306.59 59.9917 306.606 59.7792 306.606C59.4573 306.606 59.1419 306.537 58.8328 306.399C58.527 306.26 58.2727 306.049 58.0699 305.766C57.8703 305.483 57.7706 305.125 57.7706 304.694V297.316ZM62.208 306.51V299.093H63.3089V300.213H63.3862C63.5214 299.846 63.7661 299.548 64.1202 299.32C64.4743 299.091 64.8734 298.977 65.3176 298.977C65.4013 298.977 65.506 298.979 65.6315 298.982C65.757 298.985 65.852 298.99 65.9164 298.996V300.155C65.8778 300.146 65.7892 300.131 65.6508 300.112C65.5156 300.089 65.3724 300.078 65.2211 300.078C64.8605 300.078 64.5386 300.154 64.2554 300.305C63.9753 300.453 63.7532 300.659 63.589 300.923C63.4281 301.184 63.3476 301.481 63.3476 301.816V306.51H62.208ZM70.0545 306.664C69.3849 306.664 68.7974 306.505 68.2921 306.186C67.7899 305.867 67.3972 305.422 67.1139 304.849C66.8338 304.276 66.6938 303.606 66.6938 302.84C66.6938 302.067 66.8338 301.393 67.1139 300.817C67.3972 300.241 67.7899 299.793 68.2921 299.474C68.7974 299.156 69.3849 298.996 70.0545 298.996C70.7241 298.996 71.3099 299.156 71.8121 299.474C72.3175 299.793 72.7102 300.241 72.9903 300.817C73.2736 301.393 73.4152 302.067 73.4152 302.84C73.4152 303.606 73.2736 304.276 72.9903 304.849C72.7102 305.422 72.3175 305.867 71.8121 306.186C71.3099 306.505 70.7241 306.664 70.0545 306.664ZM70.0545 305.64C70.5631 305.64 70.9816 305.51 71.3099 305.249C71.6383 304.989 71.8813 304.646 72.039 304.221C72.1968 303.796 72.2756 303.336 72.2756 302.84C72.2756 302.344 72.1968 301.882 72.039 301.454C71.8813 301.026 71.6383 300.68 71.3099 300.416C70.9816 300.152 70.5631 300.02 70.0545 300.02C69.5459 300.02 69.1274 300.152 68.7991 300.416C68.4707 300.68 68.2277 301.026 68.0699 301.454C67.9122 301.882 67.8333 302.344 67.8333 302.84C67.8333 303.336 67.9122 303.796 68.0699 304.221C68.2277 304.646 68.4707 304.989 68.7991 305.249C69.1274 305.51 69.5459 305.64 70.0545 305.64ZM79.4039 301.739V302.801H75.0774V301.739H79.4039ZM84.4027 309.445C83.8522 309.445 83.379 309.375 82.9831 309.233C82.5871 309.095 82.2572 308.911 81.9932 308.683C81.7325 308.457 81.5248 308.216 81.3703 307.958L82.2781 307.321C82.3811 307.456 82.5115 307.611 82.6692 307.784C82.8269 307.961 83.0426 308.114 83.3162 308.243C83.5931 308.375 83.9552 308.441 84.4027 308.441C85.0014 308.441 85.4955 308.296 85.885 308.007C86.2745 307.717 86.4693 307.263 86.4693 306.645V305.138H86.3727C86.289 305.274 86.1699 305.441 86.0154 305.64C85.8641 305.837 85.6452 306.012 85.3587 306.167C85.0754 306.318 84.6924 306.394 84.2095 306.394C83.6108 306.394 83.0732 306.252 82.5968 305.969C82.1236 305.686 81.7485 305.274 81.4717 304.733C81.1981 304.192 81.0613 303.535 81.0613 302.763C81.0613 302.003 81.1949 301.341 81.462 300.778C81.7292 300.212 82.101 299.774 82.5775 299.465C83.0539 299.152 83.6043 298.996 84.2288 298.996C84.7117 298.996 85.0948 299.077 85.378 299.238C85.6645 299.396 85.8834 299.576 86.0347 299.779C86.1892 299.978 86.3083 300.142 86.392 300.271H86.5079V299.093H87.6089V306.722C87.6089 307.359 87.464 307.878 87.1743 308.277C86.8878 308.679 86.5015 308.974 86.0154 309.161C85.5326 309.35 84.995 309.445 84.4027 309.445ZM84.364 305.37C84.8211 305.37 85.2074 305.265 85.5229 305.056C85.8384 304.847 86.0782 304.546 86.2424 304.153C86.4065 303.761 86.4886 303.291 86.4886 302.743C86.4886 302.209 86.4081 301.737 86.2472 301.329C86.0862 300.92 85.848 300.599 85.5326 300.368C85.2171 300.136 84.8276 300.02 84.364 300.02C83.8812 300.02 83.4788 300.142 83.1569 300.387C82.8382 300.632 82.5984 300.96 82.4374 301.372C82.2797 301.784 82.2008 302.241 82.2008 302.743C82.2008 303.258 82.2813 303.714 82.4423 304.11C82.6064 304.503 82.8479 304.812 83.1665 305.037C83.4884 305.259 83.8876 305.37 84.364 305.37ZM91.8773 306.683C91.4073 306.683 90.9808 306.595 90.5977 306.418C90.2147 306.238 89.9105 305.978 89.6851 305.64C89.4598 305.299 89.3471 304.887 89.3471 304.404C89.3471 303.979 89.4308 303.635 89.5982 303.371C89.7656 303.104 89.9893 302.895 90.2694 302.743C90.5495 302.592 90.8585 302.479 91.1965 302.405C91.5377 302.328 91.8805 302.267 92.225 302.222C92.6757 302.164 93.041 302.12 93.3211 302.091C93.6044 302.059 93.8104 302.006 93.9391 301.932C94.0711 301.858 94.1371 301.729 94.1371 301.546V301.507C94.1371 301.031 94.0067 300.661 93.746 300.397C93.4885 300.133 93.0974 300.001 92.5726 300.001C92.0286 300.001 91.6021 300.12 91.2931 300.358C90.984 300.596 90.7667 300.851 90.6412 301.121L89.5596 300.735C89.7527 300.284 90.0103 299.933 90.3322 299.682C90.6573 299.428 91.0114 299.251 91.3945 299.151C91.7808 299.048 92.1606 298.996 92.534 298.996C92.7722 298.996 93.0458 299.025 93.3549 299.083C93.6671 299.138 93.9681 299.252 94.2578 299.426C94.5508 299.6 94.7938 299.862 94.9869 300.213C95.1801 300.564 95.2767 301.034 95.2767 301.623V306.51H94.1371V305.505H94.0792C94.0019 305.666 93.8731 305.838 93.6929 306.022C93.5126 306.205 93.2728 306.362 92.9734 306.49C92.674 306.619 92.3087 306.683 91.8773 306.683ZM92.0512 305.66C92.5018 305.66 92.8817 305.571 93.1907 305.394C93.503 305.217 93.7379 304.989 93.8957 304.709C94.0566 304.429 94.1371 304.134 94.1371 303.825V302.782C94.0888 302.84 93.9826 302.893 93.8184 302.941C93.6575 302.986 93.4708 303.027 93.2583 303.062C93.0491 303.094 92.8447 303.123 92.6451 303.149C92.4487 303.171 92.2894 303.191 92.167 303.207C91.8709 303.246 91.594 303.308 91.3365 303.395C91.0822 303.479 90.8762 303.606 90.7185 303.777C90.5639 303.944 90.4867 304.173 90.4867 304.462C90.4867 304.858 90.6332 305.158 90.9261 305.36C91.2222 305.56 91.5973 305.66 92.0512 305.66ZM97.3566 306.51V299.093H98.4575V300.252H98.5541C98.7086 299.856 98.9581 299.548 99.3025 299.33C99.6469 299.107 100.061 298.996 100.543 298.996C101.033 298.996 101.44 299.107 101.765 299.33C102.093 299.548 102.349 299.856 102.533 300.252H102.61C102.8 299.869 103.085 299.565 103.465 299.339C103.845 299.111 104.3 298.996 104.831 298.996C105.494 298.996 106.037 299.204 106.458 299.619C106.88 300.031 107.091 300.673 107.091 301.546V306.51H105.951V301.546C105.951 300.999 105.802 300.607 105.502 300.373C105.203 300.138 104.851 300.02 104.445 300.02C103.923 300.02 103.519 300.178 103.233 300.493C102.946 300.805 102.803 301.201 102.803 301.681V306.51H101.644V301.43C101.644 301.008 101.508 300.669 101.234 300.411C100.96 300.15 100.608 300.02 100.176 300.02C99.8803 300.02 99.6035 300.099 99.3459 300.257C99.0916 300.414 98.8856 300.633 98.7279 300.913C98.5734 301.19 98.4961 301.51 98.4961 301.874V306.51H97.3566ZM112.284 306.664C111.57 306.664 110.953 306.506 110.435 306.191C109.92 305.872 109.522 305.428 109.242 304.858C108.965 304.285 108.827 303.619 108.827 302.859C108.827 302.1 108.965 301.43 109.242 300.851C109.522 300.268 109.912 299.814 110.411 299.489C110.913 299.161 111.499 298.996 112.168 298.996C112.555 298.996 112.936 299.061 113.313 299.189C113.689 299.318 114.032 299.527 114.341 299.817C114.65 300.104 114.896 300.484 115.08 300.957C115.263 301.43 115.355 302.013 115.355 302.705V303.188H109.638V302.203H114.196C114.196 301.784 114.113 301.411 113.945 301.082C113.781 300.754 113.546 300.495 113.24 300.305C112.938 300.115 112.58 300.02 112.168 300.02C111.714 300.02 111.322 300.133 110.99 300.358C110.662 300.58 110.409 300.87 110.232 301.227C110.055 301.584 109.966 301.968 109.966 302.376V303.033C109.966 303.593 110.063 304.068 110.256 304.457C110.453 304.844 110.725 305.138 111.072 305.341C111.42 305.541 111.824 305.64 112.284 305.64C112.584 305.64 112.854 305.599 113.095 305.515C113.34 305.428 113.551 305.299 113.728 305.129C113.905 304.955 114.042 304.739 114.138 304.482L115.239 304.791C115.123 305.164 114.929 305.492 114.655 305.776C114.381 306.056 114.043 306.275 113.641 306.432C113.239 306.587 112.786 306.664 112.284 306.664ZM122.342 300.754L121.318 301.044C121.254 300.873 121.159 300.707 121.034 300.546C120.911 300.382 120.744 300.247 120.531 300.141C120.319 300.034 120.047 299.981 119.715 299.981C119.261 299.981 118.883 300.086 118.581 300.295C118.281 300.501 118.132 300.764 118.132 301.082C118.132 301.366 118.235 301.589 118.441 301.753C118.647 301.918 118.969 302.054 119.406 302.164L120.507 302.434C121.17 302.595 121.665 302.842 121.99 303.173C122.315 303.501 122.477 303.925 122.477 304.443C122.477 304.868 122.355 305.248 122.11 305.583C121.869 305.917 121.531 306.181 121.096 306.374C120.662 306.568 120.156 306.664 119.58 306.664C118.824 306.664 118.198 306.5 117.702 306.172C117.206 305.843 116.892 305.364 116.76 304.733L117.842 304.462C117.945 304.861 118.14 305.161 118.426 305.36C118.716 305.56 119.094 305.66 119.561 305.66C120.092 305.66 120.514 305.547 120.826 305.322C121.141 305.093 121.299 304.82 121.299 304.501C121.299 304.243 121.209 304.028 121.029 303.854C120.848 303.677 120.572 303.545 120.198 303.458L118.962 303.168C118.283 303.007 117.784 302.758 117.465 302.42C117.15 302.079 116.992 301.652 116.992 301.14C116.992 300.722 117.11 300.352 117.345 300.03C117.583 299.708 117.906 299.455 118.315 299.272C118.727 299.088 119.194 298.996 119.715 298.996C120.449 298.996 121.026 299.157 121.444 299.479C121.866 299.801 122.165 300.226 122.342 300.754Z" fill="white"/>
<path d="M339.085 305.759V304.889L342.352 301.312C342.736 300.893 343.052 300.529 343.3 300.22C343.548 299.907 343.732 299.614 343.851 299.34C343.973 299.063 344.034 298.773 344.034 298.47C344.034 298.122 343.951 297.821 343.783 297.566C343.619 297.312 343.393 297.115 343.106 296.976C342.82 296.838 342.497 296.769 342.14 296.769C341.759 296.769 341.427 296.848 341.144 297.005C340.864 297.16 340.646 297.378 340.491 297.658C340.34 297.938 340.264 298.267 340.264 298.644H339.123C339.123 298.064 339.257 297.555 339.525 297.117C339.792 296.678 340.156 296.337 340.617 296.092C341.081 295.847 341.601 295.725 342.178 295.725C342.758 295.725 343.272 295.847 343.72 296.092C344.168 296.337 344.519 296.667 344.774 297.083C345.029 297.499 345.156 297.961 345.156 298.47C345.156 298.834 345.09 299.19 344.958 299.538C344.829 299.883 344.603 300.268 344.281 300.694C343.962 301.116 343.519 301.631 342.952 302.24L340.728 304.619V304.696H345.33V305.759H339.085ZM350.555 305.895C349.827 305.895 349.207 305.697 348.694 305.3C348.182 304.901 347.79 304.322 347.52 303.565C347.249 302.804 347.114 301.886 347.114 300.81C347.114 299.74 347.249 298.826 347.52 298.069C347.793 297.308 348.187 296.728 348.699 296.329C349.215 295.926 349.833 295.725 350.555 295.725C351.277 295.725 351.894 295.926 352.407 296.329C352.922 296.728 353.315 297.308 353.586 298.069C353.86 298.826 353.997 299.74 353.997 300.81C353.997 301.886 353.861 302.804 353.591 303.565C353.32 304.322 352.929 304.901 352.416 305.3C351.904 305.697 351.283 305.895 350.555 305.895ZM350.555 304.831C351.277 304.831 351.838 304.483 352.237 303.787C352.637 303.091 352.837 302.099 352.837 300.81C352.837 299.952 352.745 299.223 352.561 298.62C352.381 298.017 352.12 297.558 351.778 297.242C351.44 296.927 351.032 296.769 350.555 296.769C349.84 296.769 349.281 297.121 348.878 297.827C348.475 298.53 348.274 299.524 348.274 300.81C348.274 301.667 348.364 302.395 348.544 302.994C348.725 303.594 348.984 304.05 349.323 304.362C349.664 304.675 350.075 304.831 350.555 304.831ZM359.314 295.86V305.759H358.115V297.117H358.057L355.64 298.721V297.503L358.115 295.86H359.314ZM361.929 303.729V302.743L366.279 295.86H366.995V297.387H366.511L363.224 302.588V302.666H369.083V303.729H361.929ZM366.589 305.759V303.43V302.97V295.86H367.729V305.759H366.589ZM380.311 298.335C380.253 297.845 380.017 297.465 379.605 297.194C379.192 296.923 378.686 296.788 378.087 296.788C377.649 296.788 377.265 296.859 376.937 297.001C376.611 297.142 376.357 297.337 376.173 297.586C375.992 297.834 375.902 298.116 375.902 298.431C375.902 298.696 375.965 298.923 376.091 299.113C376.22 299.3 376.384 299.456 376.584 299.582C376.784 299.704 376.993 299.806 377.212 299.886C377.431 299.964 377.633 300.027 377.816 300.075L378.822 300.346C379.08 300.413 379.366 300.507 379.682 300.626C380.001 300.745 380.306 300.908 380.596 301.114C380.889 301.317 381.131 301.578 381.321 301.897C381.511 302.216 381.606 302.608 381.606 303.072C381.606 303.607 381.466 304.09 381.185 304.522C380.908 304.954 380.502 305.297 379.967 305.552C379.436 305.806 378.79 305.933 378.029 305.933C377.32 305.933 376.706 305.819 376.187 305.59C375.672 305.361 375.266 305.042 374.969 304.633C374.676 304.224 374.51 303.749 374.471 303.207H375.709C375.741 303.581 375.867 303.89 376.086 304.135C376.308 304.377 376.589 304.557 376.927 304.677C377.268 304.793 377.636 304.851 378.029 304.851C378.487 304.851 378.897 304.777 379.262 304.628C379.626 304.477 379.914 304.267 380.127 304C380.34 303.729 380.446 303.413 380.446 303.052C380.446 302.724 380.354 302.456 380.17 302.25C379.987 302.044 379.745 301.876 379.445 301.747C379.146 301.618 378.822 301.506 378.474 301.409L377.256 301.061C376.482 300.839 375.87 300.521 375.419 300.109C374.968 299.696 374.742 299.156 374.742 298.489C374.742 297.935 374.892 297.452 375.192 297.039C375.495 296.624 375.901 296.301 376.41 296.073C376.922 295.841 377.494 295.725 378.126 295.725C378.764 295.725 379.331 295.839 379.827 296.068C380.323 296.293 380.717 296.603 381.007 296.996C381.3 297.389 381.455 297.835 381.471 298.335H380.311ZM386.439 305.914C385.742 305.914 385.143 305.75 384.64 305.421C384.138 305.092 383.751 304.64 383.48 304.063C383.21 303.486 383.074 302.827 383.074 302.086C383.074 301.332 383.213 300.666 383.49 300.089C383.77 299.509 384.16 299.057 384.66 298.731C385.162 298.402 385.749 298.238 386.419 298.238C386.941 298.238 387.412 298.335 387.831 298.528C388.25 298.721 388.593 298.992 388.86 299.34C389.128 299.688 389.294 300.094 389.358 300.558H388.217C388.13 300.22 387.937 299.92 387.637 299.659C387.341 299.395 386.941 299.263 386.439 299.263C385.994 299.263 385.604 299.379 385.269 299.611C384.937 299.84 384.677 300.164 384.491 300.582C384.307 300.998 384.215 301.486 384.215 302.047C384.215 302.621 384.305 303.12 384.486 303.546C384.669 303.971 384.927 304.301 385.259 304.536C385.594 304.772 385.987 304.889 386.439 304.889C386.735 304.889 387.004 304.838 387.246 304.735C387.487 304.632 387.692 304.483 387.86 304.29C388.027 304.097 388.146 303.865 388.217 303.594H389.358C389.294 304.032 389.134 304.427 388.88 304.778C388.628 305.126 388.295 305.403 387.879 305.61C387.467 305.813 386.986 305.914 386.439 305.914ZM394.042 305.914C393.372 305.914 392.784 305.755 392.278 305.436C391.775 305.117 391.382 304.67 391.098 304.097C390.818 303.523 390.678 302.853 390.678 302.086C390.678 301.312 390.818 300.637 391.098 300.06C391.382 299.484 391.775 299.036 392.278 298.717C392.784 298.398 393.372 298.238 394.042 298.238C394.712 298.238 395.299 298.398 395.801 298.717C396.307 299.036 396.701 299.484 396.981 300.06C397.265 300.637 397.406 301.312 397.406 302.086C397.406 302.853 397.265 303.523 396.981 304.097C396.701 304.67 396.307 305.117 395.801 305.436C395.299 305.755 394.712 305.914 394.042 305.914ZM394.042 304.889C394.551 304.889 394.97 304.759 395.299 304.498C395.627 304.237 395.871 303.894 396.029 303.468C396.187 303.043 396.266 302.582 396.266 302.086C396.266 301.589 396.187 301.127 396.029 300.698C395.871 300.27 395.627 299.923 395.299 299.659C394.97 299.395 394.551 299.263 394.042 299.263C393.533 299.263 393.114 299.395 392.785 299.659C392.457 299.923 392.213 300.27 392.055 300.698C391.897 301.127 391.818 301.589 391.818 302.086C391.818 302.582 391.897 303.043 392.055 303.468C392.213 303.894 392.457 304.237 392.785 304.498C393.114 304.759 393.533 304.889 394.042 304.889ZM402.377 298.335V299.302H398.529V298.335H402.377ZM399.65 296.556H400.791V303.633C400.791 303.955 400.838 304.196 400.931 304.358C401.028 304.516 401.15 304.622 401.299 304.677C401.45 304.728 401.61 304.754 401.777 304.754C401.903 304.754 402.006 304.748 402.087 304.735C402.167 304.719 402.232 304.706 402.28 304.696L402.512 305.721C402.435 305.75 402.327 305.779 402.188 305.808C402.05 305.84 401.874 305.856 401.661 305.856C401.339 305.856 401.023 305.787 400.714 305.648C400.408 305.51 400.153 305.299 399.95 305.015C399.75 304.731 399.65 304.374 399.65 303.942V296.556ZM407.322 298.335V299.302H403.474V298.335H407.322ZM404.595 296.556H405.736V303.633C405.736 303.955 405.783 304.196 405.876 304.358C405.973 304.516 406.095 304.622 406.244 304.677C406.395 304.728 406.555 304.754 406.722 304.754C406.848 304.754 406.951 304.748 407.032 304.735C407.112 304.719 407.177 304.706 407.225 304.696L407.457 305.721C407.38 305.75 407.272 305.779 407.133 305.808C406.994 305.84 406.819 305.856 406.606 305.856C406.284 305.856 405.968 305.787 405.659 305.648C405.353 305.51 405.098 305.299 404.895 305.015C404.695 304.731 404.595 304.374 404.595 303.942V296.556ZM420.987 298.953H419.788C419.717 298.609 419.593 298.306 419.416 298.045C419.242 297.784 419.029 297.565 418.778 297.387C418.529 297.207 418.254 297.072 417.951 296.981C417.648 296.891 417.332 296.846 417.004 296.846C416.404 296.846 415.861 296.997 415.375 297.3C414.891 297.603 414.506 298.05 414.219 298.639C413.936 299.229 413.794 299.952 413.794 300.81C413.794 301.667 413.936 302.39 414.219 302.98C414.506 303.57 414.891 304.016 415.375 304.319C415.861 304.622 416.404 304.773 417.004 304.773C417.332 304.773 417.648 304.728 417.951 304.638C418.254 304.548 418.529 304.414 418.778 304.237C419.029 304.056 419.242 303.836 419.416 303.575C419.593 303.31 419.717 303.007 419.788 302.666H420.987C420.896 303.172 420.732 303.624 420.494 304.024C420.255 304.424 419.959 304.764 419.604 305.044C419.25 305.321 418.852 305.532 418.41 305.677C417.972 305.822 417.503 305.895 417.004 305.895C416.159 305.895 415.408 305.689 414.751 305.276C414.094 304.864 413.576 304.277 413.199 303.517C412.822 302.756 412.634 301.854 412.634 300.81C412.634 299.766 412.822 298.863 413.199 298.103C413.576 297.342 414.094 296.756 414.751 296.343C415.408 295.931 416.159 295.725 417.004 295.725C417.503 295.725 417.972 295.797 418.41 295.942C418.852 296.087 419.25 296.3 419.604 296.58C419.959 296.857 420.255 297.196 420.494 297.595C420.732 297.992 420.896 298.444 420.987 298.953ZM424.954 305.933C424.483 305.933 424.056 305.845 423.673 305.668C423.289 305.487 422.985 305.228 422.759 304.889C422.534 304.548 422.421 304.135 422.421 303.652C422.421 303.227 422.505 302.882 422.672 302.617C422.84 302.35 423.064 302.141 423.344 301.989C423.625 301.838 423.934 301.725 424.272 301.651C424.614 301.573 424.957 301.512 425.302 301.467C425.753 301.409 426.119 301.366 426.399 301.337C426.683 301.304 426.889 301.251 427.018 301.177C427.15 301.103 427.216 300.974 427.216 300.79V300.752C427.216 300.275 427.086 299.904 426.825 299.64C426.567 299.376 426.175 299.244 425.65 299.244C425.105 299.244 424.678 299.363 424.369 299.601C424.06 299.84 423.842 300.094 423.716 300.365L422.634 299.978C422.827 299.527 423.085 299.176 423.407 298.924C423.733 298.67 424.087 298.493 424.47 298.393C424.857 298.29 425.237 298.238 425.611 298.238C425.85 298.238 426.124 298.267 426.433 298.325C426.746 298.38 427.047 298.494 427.337 298.668C427.63 298.842 427.873 299.105 428.067 299.456C428.26 299.807 428.357 300.278 428.357 300.868V305.759H427.216V304.754H427.158C427.081 304.915 426.952 305.088 426.771 305.271C426.591 305.455 426.351 305.611 426.051 305.74C425.751 305.869 425.386 305.933 424.954 305.933ZM425.128 304.909C425.579 304.909 425.959 304.82 426.269 304.643C426.581 304.466 426.816 304.237 426.974 303.956C427.135 303.676 427.216 303.381 427.216 303.072V302.028C427.168 302.086 427.061 302.139 426.897 302.187C426.736 302.232 426.549 302.273 426.336 302.308C426.127 302.34 425.922 302.369 425.722 302.395C425.526 302.418 425.366 302.437 425.244 302.453C424.947 302.492 424.67 302.555 424.412 302.642C424.158 302.725 423.952 302.853 423.794 303.023C423.639 303.191 423.562 303.42 423.562 303.71C423.562 304.106 423.708 304.406 424.002 304.609C424.298 304.809 424.673 304.909 425.128 304.909ZM432.121 305.759L429.859 298.335H431.058L432.662 304.019H432.74L434.325 298.335H435.543L437.11 304H437.187L438.792 298.335H439.99L437.728 305.759H436.607L434.983 300.056H434.867L433.243 305.759H432.121ZM444.728 298.335V299.302H440.88V298.335H444.728ZM442.001 296.556H443.142V303.633C443.142 303.955 443.189 304.196 443.282 304.358C443.379 304.516 443.501 304.622 443.65 304.677C443.801 304.728 443.961 304.754 444.128 304.754C444.254 304.754 444.357 304.748 444.437 304.735C444.518 304.719 444.582 304.706 444.631 304.696L444.863 305.721C444.786 305.75 444.678 305.779 444.539 305.808C444.4 305.84 444.225 305.856 444.012 305.856C443.69 305.856 443.374 305.787 443.065 305.648C442.759 305.51 442.504 305.299 442.301 305.015C442.101 304.731 442.001 304.374 442.001 303.942V296.556ZM447.744 301.293V305.759H446.603V295.86H447.744V299.495H447.84C448.014 299.111 448.275 298.807 448.624 298.581C448.975 298.352 449.442 298.238 450.025 298.238C450.531 298.238 450.974 298.34 451.355 298.543C451.735 298.742 452.03 299.05 452.239 299.466C452.452 299.878 452.558 300.404 452.558 301.042V305.759H451.417V301.119C451.417 300.529 451.264 300.073 450.958 299.751C450.655 299.426 450.235 299.263 449.697 299.263C449.323 299.263 448.988 299.342 448.691 299.5C448.398 299.658 448.166 299.888 447.995 300.191C447.828 300.494 447.744 300.861 447.744 301.293ZM457.661 305.914C456.991 305.914 456.403 305.755 455.897 305.436C455.394 305.117 455.001 304.67 454.718 304.097C454.437 303.523 454.297 302.853 454.297 302.086C454.297 301.312 454.437 300.637 454.718 300.06C455.001 299.484 455.394 299.036 455.897 298.717C456.403 298.398 456.991 298.238 457.661 298.238C458.332 298.238 458.918 298.398 459.421 298.717C459.927 299.036 460.32 299.484 460.6 300.06C460.884 300.637 461.026 301.312 461.026 302.086C461.026 302.853 460.884 303.523 460.6 304.097C460.32 304.67 459.927 305.117 459.421 305.436C458.918 305.755 458.332 305.914 457.661 305.914ZM457.661 304.889C458.171 304.889 458.589 304.759 458.918 304.498C459.247 304.237 459.49 303.894 459.648 303.468C459.806 303.043 459.885 302.582 459.885 302.086C459.885 301.589 459.806 301.127 459.648 300.698C459.49 300.27 459.247 299.923 458.918 299.659C458.589 299.395 458.171 299.263 457.661 299.263C457.152 299.263 456.733 299.395 456.405 299.659C456.076 299.923 455.833 300.27 455.675 300.698C455.517 301.127 455.438 301.589 455.438 302.086C455.438 302.582 455.517 303.043 455.675 303.468C455.833 303.894 456.076 304.237 456.405 304.498C456.733 304.759 457.152 304.889 457.661 304.889ZM463.908 301.293V305.759H462.767V298.335H463.869V299.495H463.966C464.14 299.118 464.404 298.815 464.759 298.586C465.113 298.354 465.571 298.238 466.131 298.238C466.634 298.238 467.074 298.341 467.451 298.547C467.828 298.75 468.121 299.06 468.331 299.476C468.54 299.888 468.645 300.41 468.645 301.042V305.759H467.504V301.119C467.504 300.536 467.353 300.081 467.05 299.756C466.747 299.427 466.331 299.263 465.803 299.263C465.439 299.263 465.113 299.342 464.826 299.5C464.543 299.658 464.319 299.888 464.154 300.191C463.99 300.494 463.908 300.861 463.908 301.293Z" fill="white"/>
<path d="M57.5772 174.593V187.83H56.026L48.8128 177.437H48.6835V187.83H47.0806V174.593H48.6318L55.8709 185.012H56.0001V174.593H57.5772ZM64.7403 188.037C63.7837 188.037 62.9586 187.826 62.2648 187.403C61.5754 186.977 61.0432 186.382 60.6684 185.619C60.2978 184.852 60.1125 183.961 60.1125 182.944C60.1125 181.927 60.2978 181.03 60.6684 180.255C61.0432 179.475 61.5646 178.867 62.2325 178.432C62.9047 177.993 63.6889 177.773 64.5852 177.773C65.1023 177.773 65.6129 177.859 66.117 178.031C66.6212 178.204 67.0801 178.484 67.4937 178.872C67.9074 179.255 68.237 179.764 68.4827 180.397C68.7283 181.03 68.8511 181.81 68.8511 182.737V183.383H61.1984V182.065H67.2998C67.2998 181.504 67.1878 181.005 66.9637 180.565C66.744 180.126 66.4294 179.779 66.0201 179.524C65.615 179.27 65.1367 179.143 64.5852 179.143C63.9776 179.143 63.4519 179.294 63.0081 179.596C62.5686 179.893 62.2304 180.281 61.9934 180.759C61.7564 181.237 61.6379 181.75 61.6379 182.297V183.176C61.6379 183.926 61.7671 184.562 62.0257 185.083C62.2885 185.6 62.6526 185.994 63.118 186.266C63.5834 186.533 64.1241 186.667 64.7403 186.667C65.1411 186.667 65.503 186.611 65.8262 186.498C66.1537 186.382 66.4359 186.21 66.6729 185.981C66.9099 185.749 67.093 185.46 67.2223 185.115L68.6959 185.529C68.5408 186.029 68.2801 186.468 67.9139 186.848C67.5476 187.222 67.0952 187.515 66.5565 187.727C66.0179 187.933 65.4125 188.037 64.7403 188.037ZM73.4207 187.83L70.3958 177.902H71.9988L74.1446 185.503H74.248L76.368 177.902H77.9968L80.091 185.477H80.1944L82.3403 177.902H83.9432L80.9183 187.83H79.4188L77.2471 180.203H77.092L74.9202 187.83H73.4207ZM100.334 178.729C100.192 178.294 100.005 177.904 99.7722 177.56C99.5438 177.211 99.2702 176.913 98.9513 176.668C98.6367 176.422 98.2791 176.235 97.8784 176.105C97.4776 175.976 97.0381 175.911 96.5598 175.911C95.7756 175.911 95.0625 176.114 94.4204 176.519C93.7784 176.924 93.2678 177.521 92.8886 178.309C92.5094 179.098 92.3198 180.065 92.3198 181.211C92.3198 182.358 92.5116 183.325 92.8951 184.113C93.2786 184.902 93.7978 185.499 94.4527 185.904C95.1077 186.309 95.8445 186.511 96.6632 186.511C97.4216 186.511 98.0895 186.35 98.6669 186.027C99.2486 185.699 99.7011 185.238 100.024 184.643C100.352 184.045 100.515 183.34 100.515 182.53L101.007 182.633H97.0252V181.211H102.067V182.633C102.067 183.724 101.834 184.671 101.369 185.477C100.908 186.283 100.27 186.908 99.4554 187.352C98.6454 187.791 97.7146 188.011 96.6632 188.011C95.4912 188.011 94.4614 187.735 93.5737 187.184C92.6904 186.632 92.0009 185.848 91.5054 184.831C91.0142 183.814 90.7686 182.607 90.7686 181.211C90.7686 180.164 90.9086 179.223 91.1887 178.387C91.4731 177.547 91.8738 176.831 92.3909 176.241C92.908 175.651 93.5199 175.198 94.2265 174.884C94.9332 174.569 95.711 174.412 96.5598 174.412C97.2579 174.412 97.9085 174.517 98.5118 174.729C99.1193 174.935 99.6601 175.231 100.134 175.614C100.612 175.993 101.011 176.448 101.33 176.978C101.649 177.504 101.868 178.087 101.989 178.729H100.334ZM107.527 188.063C106.898 188.063 106.327 187.944 105.814 187.707C105.301 187.466 104.894 187.119 104.592 186.667C104.291 186.21 104.14 185.658 104.14 185.012C104.14 184.443 104.252 183.982 104.476 183.629C104.7 183.271 104.999 182.991 105.374 182.788C105.749 182.586 106.163 182.435 106.615 182.336C107.072 182.233 107.531 182.151 107.992 182.09C108.595 182.013 109.084 181.955 109.459 181.916C109.838 181.873 110.114 181.802 110.287 181.703C110.463 181.604 110.552 181.431 110.552 181.186V181.134C110.552 180.496 110.377 180.001 110.028 179.647C109.683 179.294 109.16 179.117 108.457 179.117C107.729 179.117 107.158 179.277 106.745 179.596C106.331 179.914 106.04 180.255 105.872 180.617L104.424 180.1C104.683 179.496 105.027 179.027 105.458 178.691C105.894 178.35 106.368 178.113 106.88 177.98C107.397 177.842 107.906 177.773 108.406 177.773C108.725 177.773 109.091 177.812 109.504 177.889C109.922 177.962 110.325 178.115 110.713 178.348C111.105 178.581 111.431 178.932 111.689 179.402C111.948 179.871 112.077 180.5 112.077 181.289V187.83H110.552V186.486H110.474C110.371 186.701 110.198 186.932 109.957 187.177C109.716 187.423 109.395 187.632 108.994 187.804C108.593 187.976 108.104 188.063 107.527 188.063ZM107.759 186.692C108.363 186.692 108.871 186.574 109.285 186.337C109.703 186.1 110.017 185.794 110.228 185.419C110.444 185.044 110.552 184.65 110.552 184.236V182.84C110.487 182.918 110.345 182.989 110.125 183.053C109.91 183.114 109.66 183.168 109.375 183.215C109.095 183.258 108.822 183.297 108.554 183.331C108.292 183.362 108.078 183.387 107.914 183.409C107.518 183.461 107.147 183.545 106.803 183.661C106.462 183.773 106.187 183.943 105.975 184.172C105.769 184.396 105.665 184.702 105.665 185.089C105.665 185.619 105.861 186.02 106.253 186.292C106.65 186.559 107.152 186.692 107.759 186.692ZM114.861 187.83V177.902H116.335V179.453H116.464C116.671 178.923 117.005 178.512 117.466 178.219C117.927 177.922 118.481 177.773 119.127 177.773C119.782 177.773 120.327 177.922 120.762 178.219C121.202 178.512 121.544 178.923 121.79 179.453H121.893C122.147 178.941 122.529 178.533 123.037 178.232C123.546 177.926 124.155 177.773 124.866 177.773C125.754 177.773 126.48 178.051 127.045 178.607C127.609 179.158 127.891 180.018 127.891 181.186V187.83H126.366V181.186C126.366 180.453 126.166 179.929 125.765 179.615C125.364 179.3 124.892 179.143 124.349 179.143C123.651 179.143 123.111 179.354 122.727 179.777C122.344 180.194 122.152 180.724 122.152 181.367V187.83H120.601V181.03C120.601 180.466 120.417 180.011 120.051 179.667C119.685 179.318 119.213 179.143 118.636 179.143C118.239 179.143 117.869 179.249 117.524 179.46C117.184 179.671 116.908 179.964 116.697 180.339C116.49 180.709 116.386 181.138 116.386 181.625V187.83H114.861ZM134.843 188.037C133.886 188.037 133.061 187.826 132.367 187.403C131.678 186.977 131.146 186.382 130.771 185.619C130.4 184.852 130.215 183.961 130.215 182.944C130.215 181.927 130.4 181.03 130.771 180.255C131.146 179.475 131.667 178.867 132.335 178.432C133.007 177.993 133.791 177.773 134.688 177.773C135.205 177.773 135.715 177.859 136.219 178.031C136.724 178.204 137.183 178.484 137.596 178.872C138.01 179.255 138.339 179.764 138.585 180.397C138.831 181.03 138.954 181.81 138.954 182.737V183.383H131.301V182.065H137.402C137.402 181.504 137.29 181.005 137.066 180.565C136.846 180.126 136.532 179.779 136.123 179.524C135.717 179.27 135.239 179.143 134.688 179.143C134.08 179.143 133.554 179.294 133.111 179.596C132.671 179.893 132.333 180.281 132.096 180.759C131.859 181.237 131.74 181.75 131.74 182.297V183.176C131.74 183.926 131.87 184.562 132.128 185.083C132.391 185.6 132.755 185.994 133.22 186.266C133.686 186.533 134.227 186.667 134.843 186.667C135.243 186.667 135.605 186.611 135.929 186.498C136.256 186.382 136.538 186.21 136.775 185.981C137.012 185.749 137.195 185.46 137.325 185.115L138.798 185.529C138.643 186.029 138.383 186.468 138.016 186.848C137.65 187.222 137.198 187.515 136.659 187.727C136.12 187.933 135.515 188.037 134.843 188.037Z" fill="white"/>
<path d="M47.2168 26.7897V8.93549H57.9224V10.8534H49.3789V16.8862H57.1204V18.8041H49.3789V26.7897H47.2168ZM61.3464 26.7897V13.3991H63.4038V26.7897H61.3464ZM62.3925 11.1673C61.9915 11.1673 61.6457 11.0307 61.3551 10.7575C61.0703 10.4844 60.9279 10.156 60.9279 9.77241C60.9279 9.38882 61.0703 9.06045 61.3551 8.78729C61.6457 8.51413 61.9915 8.37755 62.3925 8.37755C62.7935 8.37755 63.1364 8.51413 63.4212 8.78729C63.7118 9.06045 63.8571 9.38882 63.8571 9.77241C63.8571 10.156 63.7118 10.4844 63.4212 10.7575C63.1364 11.0307 62.7935 11.1673 62.3925 11.1673ZM78.1218 13.3991L73.17 26.7897H71.0777L66.1259 13.3991H68.3577L72.0541 24.0698H72.1936L75.89 13.3991H78.1218ZM85.9722 27.0687C84.682 27.0687 83.569 26.7839 82.6333 26.2144C81.7034 25.639 80.9856 24.8369 80.48 23.8082C79.9801 22.7737 79.7302 21.5706 79.7302 20.199C79.7302 18.8274 79.9801 17.6185 80.48 16.5724C80.9856 15.5204 81.6888 14.7009 82.5897 14.1139C83.4963 13.5211 84.5541 13.2247 85.763 13.2247C86.4604 13.2247 87.1491 13.3409 87.8291 13.5734C88.5091 13.8059 89.1281 14.1837 89.686 14.7067C90.244 15.224 90.6886 15.9098 91.0199 16.7642C91.3512 17.6185 91.5168 18.6705 91.5168 19.92V20.7918H81.1948V19.0134H89.4245C89.4245 18.2578 89.2734 17.5836 88.9712 16.9908C88.6748 16.398 88.2505 15.9301 87.6984 15.5872C87.152 15.2443 86.5069 15.0729 85.763 15.0729C84.9435 15.0729 84.2345 15.2763 83.6358 15.6831C83.043 16.0842 82.5868 16.6072 82.2671 17.2524C81.9475 17.8975 81.7876 18.5891 81.7876 19.3272V20.5129C81.7876 21.5241 81.962 22.3814 82.3107 23.0846C82.6652 23.7821 83.1563 24.3139 83.784 24.68C84.4117 25.0403 85.1411 25.2205 85.9722 25.2205C86.5127 25.2205 87.0009 25.145 87.4368 24.9938C87.8785 24.8369 88.2592 24.6044 88.5789 24.2964C88.8985 23.9826 89.1455 23.5932 89.3199 23.1282L91.3076 23.6862C91.0983 24.3603 90.7467 24.9532 90.2527 25.4646C89.7587 25.9703 89.1484 26.3655 88.422 26.6502C87.6955 26.9292 86.8789 27.0687 85.9722 27.0687Z" fill="white"/>
<path d="M61.3747 36.6765V54.5308H59.2824L49.5532 40.5124H49.3789V54.5308H47.2168V36.6765H49.3091L59.0732 50.7298H59.2475V36.6765H61.3747ZM65.422 54.5308V41.1401H67.4794V54.5308H65.422ZM66.4681 38.9083C66.0671 38.9083 65.7213 38.7717 65.4307 38.4986C65.1459 38.2254 65.0035 37.897 65.0035 37.5134C65.0035 37.1299 65.1459 36.8015 65.4307 36.5283C65.7213 36.2552 66.0671 36.1186 66.4681 36.1186C66.8692 36.1186 67.2121 36.2552 67.4968 36.5283C67.7874 36.8015 67.9327 37.1299 67.9327 37.5134C67.9327 37.897 67.7874 38.2254 67.4968 38.4986C67.2121 38.7717 66.8692 38.9083 66.4681 38.9083ZM76.6528 59.8312C75.659 59.8312 74.8046 59.7034 74.0897 59.4477C73.3749 59.1977 72.7792 58.8665 72.3026 58.4538C71.8318 58.047 71.4569 57.6111 71.178 57.1461L72.8169 55.9954C73.0029 56.2395 73.2383 56.5184 73.5231 56.8323C73.8079 57.1519 74.1973 57.428 74.6913 57.6605C75.1911 57.8988 75.8449 58.0179 76.6528 58.0179C77.7338 58.0179 78.626 57.7564 79.3292 57.2333C80.0324 56.7102 80.3841 55.8908 80.3841 54.7749V52.0549H80.2097C80.0586 52.299 79.8436 52.6012 79.5646 52.9615C79.2914 53.3161 78.8962 53.6328 78.3789 53.9118C77.8675 54.185 77.1759 54.3215 76.3041 54.3215C75.2231 54.3215 74.2525 54.0658 73.3923 53.5544C72.538 53.0429 71.8609 52.299 71.361 51.3226C70.867 50.3462 70.62 49.1605 70.62 47.7657C70.62 46.3941 70.8612 45.1997 71.3436 44.1826C71.826 43.1597 72.4973 42.3693 73.3574 41.8114C74.2176 41.2476 75.2114 40.9657 76.339 40.9657C77.2107 40.9657 77.9024 41.111 78.4138 41.4016C78.9311 41.6864 79.3263 42.0119 79.5995 42.378C79.8784 42.7384 80.0935 43.0348 80.2446 43.2672H80.4538V41.1401H82.4415V54.9143C82.4415 56.0651 82.1799 57.0008 81.6569 57.7215C81.1396 58.448 80.4422 58.9798 79.5646 59.3169C78.6928 59.6598 77.7222 59.8312 76.6528 59.8312ZM76.5831 52.4733C77.4084 52.4733 78.1058 52.2845 78.6754 51.9067C79.2449 51.5289 79.6779 50.9855 79.9743 50.2764C80.2707 49.5674 80.4189 48.7188 80.4189 47.7308C80.4189 46.766 80.2736 45.9146 79.983 45.1765C79.6924 44.4384 79.2624 43.8601 78.6928 43.4416C78.1232 43.0231 77.42 42.8139 76.5831 42.8139C75.7113 42.8139 74.9848 43.0348 74.4036 43.4765C73.8282 43.9182 73.3952 44.511 73.1046 45.2549C72.8198 45.9989 72.6774 46.8241 72.6774 47.7308C72.6774 48.6607 72.8227 49.4831 73.1133 50.198C73.4097 50.907 73.8456 51.465 74.421 51.8718C75.0022 52.2728 75.7229 52.4733 76.5831 52.4733ZM88.265 46.4754V54.5308H86.2076V36.6765H88.265V43.2324H88.4394C88.7532 42.5408 89.224 41.9915 89.8517 41.5847C90.4852 41.172 91.3279 40.9657 92.3799 40.9657C93.2924 40.9657 94.0915 41.1488 94.7773 41.515C95.4631 41.8753 95.9949 42.4303 96.3727 43.1801C96.7563 43.924 96.9481 44.8713 96.9481 46.0221V54.5308H94.8906V46.1616C94.8906 45.098 94.6146 44.2756 94.0624 43.6944C93.5161 43.1074 92.7577 42.8139 91.7871 42.8139C91.1129 42.8139 90.5084 42.9563 89.9737 43.2411C89.4449 43.5259 89.0264 43.9414 88.7184 44.4878C88.4161 45.0341 88.265 45.6966 88.265 46.4754ZM106.536 41.1401V42.8837H99.5961V41.1401H106.536ZM101.619 37.9319H103.676V50.6949C103.676 51.2761 103.76 51.712 103.929 52.0026C104.103 52.2874 104.324 52.4792 104.591 52.578C104.865 52.6709 105.152 52.7174 105.455 52.7174C105.681 52.7174 105.867 52.7058 106.012 52.6826C106.158 52.6535 106.274 52.6303 106.361 52.6128L106.78 54.461C106.64 54.5133 106.445 54.5656 106.196 54.6179C105.946 54.6761 105.629 54.7051 105.245 54.7051C104.664 54.7051 104.095 54.5802 103.537 54.3303C102.984 54.0803 102.525 53.6997 102.159 53.1882C101.799 52.6768 101.619 52.0316 101.619 51.2528V37.9319ZM118.876 44.139L117.028 44.6621C116.911 44.3541 116.74 44.0548 116.513 43.7642C116.292 43.4678 115.99 43.2237 115.607 43.0319C115.223 42.8401 114.732 42.7442 114.133 42.7442C113.314 42.7442 112.631 42.9331 112.084 43.3108C111.544 43.6828 111.274 44.1565 111.274 44.7319C111.274 45.2433 111.46 45.6472 111.832 45.9436C112.204 46.24 112.785 46.4871 113.575 46.6847L115.563 47.1729C116.76 47.4635 117.652 47.9081 118.239 48.5067C118.826 49.0995 119.12 49.8638 119.12 50.7995C119.12 51.5667 118.899 52.2525 118.457 52.8569C118.021 53.4614 117.411 53.9379 116.627 54.2867C115.842 54.6354 114.929 54.8097 113.889 54.8097C112.523 54.8097 111.393 54.5133 110.498 53.9205C109.603 53.3277 109.036 52.4617 108.798 51.3226L110.751 50.8344C110.937 51.5551 111.288 52.0956 111.806 52.4559C112.329 52.8162 113.011 52.9964 113.854 52.9964C114.813 52.9964 115.575 52.793 116.138 52.3862C116.708 51.9735 116.993 51.4795 116.993 50.9041C116.993 50.4392 116.83 50.0498 116.504 49.7359C116.179 49.4163 115.679 49.178 115.005 49.0211L112.773 48.498C111.547 48.2074 110.646 47.757 110.071 47.1467C109.501 46.5306 109.216 45.7606 109.216 44.8365C109.216 44.0809 109.428 43.4125 109.853 42.8314C110.283 42.2502 110.867 41.7939 111.605 41.4626C112.349 41.1314 113.192 40.9657 114.133 40.9657C115.458 40.9657 116.499 41.2563 117.254 41.8375C118.016 42.4187 118.556 43.1859 118.876 44.139Z" fill="white"/>
<path d="M47.9491 82.2718H45.6825L52.2384 64.4175H54.4701L61.026 82.2718H58.7593L53.424 67.2421H53.2845L47.9491 82.2718ZM48.7861 75.2975H57.9224V77.2154H48.7861V75.2975ZM68.5125 68.8811V70.6247H61.573V68.8811H68.5125ZM63.5956 65.6729H65.653V78.4359C65.653 79.0171 65.7373 79.453 65.9058 79.7436C66.0802 80.0284 66.301 80.2202 66.5684 80.319C66.8415 80.412 67.1292 80.4585 67.4315 80.4585C67.6581 80.4585 67.8441 80.4468 67.9894 80.4236C68.1347 80.3945 68.2509 80.3713 68.3381 80.3539L68.7566 82.202C68.6171 82.2544 68.4224 82.3067 68.1725 82.359C67.9226 82.4171 67.6058 82.4461 67.2222 82.4461C66.641 82.4461 66.0715 82.3212 65.5135 82.0713C64.9614 81.8214 64.5022 81.4407 64.1361 80.9292C63.7758 80.4178 63.5956 79.7727 63.5956 78.9939V65.6729Z" fill="white"/>
<path d="M47.2168 110.013V92.1586H57.9224V94.0765H49.3789V100.109H57.1204V102.027H49.3789V110.013H47.2168ZM61.2025 110.013V96.6221H63.1902V98.6447H63.3297C63.5738 97.9821 64.0155 97.4445 64.6548 97.0319C65.2941 96.6192 66.0148 96.4129 66.8168 96.4129C66.968 96.4129 67.1568 96.4158 67.3835 96.4216C67.6102 96.4274 67.7816 96.4362 67.8979 96.4478V98.5401C67.8281 98.5226 67.6683 98.4965 67.4184 98.4616C67.1743 98.4209 66.9156 98.4006 66.6425 98.4006C65.9916 98.4006 65.4104 98.5372 64.8989 98.8103C64.3933 99.0777 63.9922 99.4496 63.6958 99.9262C63.4052 100.397 63.2599 100.935 63.2599 101.539V110.013H61.2025ZM75.5435 110.292C74.2532 110.292 73.1402 110.007 72.2045 109.437C71.2746 108.862 70.5568 108.06 70.0512 107.031C69.5514 105.997 69.3014 104.794 69.3014 103.422C69.3014 102.05 69.5514 100.842 70.0512 99.7954C70.5568 98.7435 71.2601 97.924 72.1609 97.337C73.0676 96.7442 74.1253 96.4478 75.3342 96.4478C76.0317 96.4478 76.7204 96.564 77.4004 96.7965C78.0804 97.029 78.6993 97.4067 79.2573 97.9298C79.8152 98.4471 80.2598 99.1329 80.5911 99.9872C80.9224 100.842 81.088 101.894 81.088 103.143V104.015H70.766V102.236H78.9957C78.9957 101.481 78.8446 100.807 78.5424 100.214C78.246 99.6211 77.8217 99.1532 77.2696 98.8103C76.7233 98.4674 76.0781 98.296 75.3342 98.296C74.5147 98.296 73.8057 98.4994 73.2071 98.9062C72.6142 99.3072 72.158 99.8303 71.8383 100.475C71.5187 101.121 71.3589 101.812 71.3589 102.55V103.736C71.3589 104.747 71.5332 105.604 71.8819 106.308C72.2365 107.005 72.7276 107.537 73.3553 107.903C73.983 108.263 74.7123 108.444 75.5435 108.444C76.084 108.444 76.5722 108.368 77.0081 108.217C77.4498 108.06 77.8304 107.828 78.1501 107.52C78.4698 107.206 78.7168 106.816 78.8911 106.351L80.8788 106.909C80.6696 107.583 80.318 108.176 79.8239 108.688C79.3299 109.193 78.7197 109.589 77.9932 109.873C77.2667 110.152 76.4501 110.292 75.5435 110.292ZM89.2741 110.292C88.1582 110.292 87.1731 110.01 86.3188 109.446C85.4644 108.877 84.796 108.075 84.3137 107.04C83.8313 106 83.5901 104.77 83.5901 103.352C83.5901 101.946 83.8313 100.725 84.3137 99.6908C84.796 98.6563 85.4673 97.8572 86.3275 97.2934C87.1876 96.7297 88.1815 96.4478 89.309 96.4478C90.1808 96.4478 90.8695 96.5931 91.3751 96.8837C91.8866 97.1685 92.276 97.4939 92.5433 97.8601C92.8165 98.2204 93.0286 98.5168 93.1797 98.7493H93.3541V92.1586H95.4115V110.013H93.4238V107.955H93.1797C93.0286 108.199 92.8136 108.508 92.5346 108.879C92.2556 109.246 91.8575 109.574 91.3403 109.865C90.823 110.149 90.1343 110.292 89.2741 110.292ZM89.5531 108.444C90.3784 108.444 91.0758 108.229 91.6454 107.798C92.215 107.363 92.648 106.761 92.9444 105.994C93.2408 105.221 93.389 104.329 93.389 103.317C93.389 102.318 93.2437 101.443 92.9531 100.693C92.6625 99.9378 92.2324 99.3508 91.6628 98.9324C91.0933 98.5081 90.39 98.296 89.5531 98.296C88.6813 98.296 87.9548 98.5197 87.3736 98.9672C86.7983 99.409 86.3653 100.01 86.0747 100.772C85.7899 101.527 85.6475 102.376 85.6475 103.317C85.6475 104.271 85.7928 105.137 86.0834 105.915C86.3798 106.688 86.8157 107.304 87.3911 107.764C87.9723 108.217 88.6929 108.444 89.5531 108.444ZM104.522 110.292C103.406 110.292 102.421 110.01 101.566 109.446C100.712 108.877 100.044 108.075 99.5612 107.04C99.0789 106 98.8377 104.77 98.8377 103.352C98.8377 101.946 99.0789 100.725 99.5612 99.6908C100.044 98.6563 100.715 97.8572 101.575 97.2934C102.435 96.7297 103.429 96.4478 104.557 96.4478C105.428 96.4478 106.117 96.5931 106.623 96.8837C107.134 97.1685 107.524 97.4939 107.791 97.8601C108.064 98.2204 108.276 98.5168 108.427 98.7493H108.602V92.1586H110.659V110.013H108.671V107.955H108.427C108.276 108.199 108.061 108.508 107.782 108.879C107.503 109.246 107.105 109.574 106.588 109.865C106.071 110.149 105.382 110.292 104.522 110.292ZM104.801 108.444C105.626 108.444 106.323 108.229 106.893 107.798C107.463 107.363 107.896 106.761 108.192 105.994C108.488 105.221 108.637 104.329 108.637 103.317C108.637 102.318 108.491 101.443 108.201 100.693C107.91 99.9378 107.48 99.3508 106.91 98.9324C106.341 98.5081 105.638 98.296 104.801 98.296C103.929 98.296 103.202 98.5197 102.621 98.9672C102.046 99.409 101.613 100.01 101.322 100.772C101.037 101.527 100.895 102.376 100.895 103.317C100.895 104.271 101.04 105.137 101.331 105.915C101.627 106.688 102.063 107.304 102.639 107.764C103.22 108.217 103.941 108.444 104.801 108.444ZM116.038 115.034C115.689 115.034 115.378 115.005 115.105 114.947C114.832 114.895 114.643 114.843 114.539 114.79L115.062 112.977C115.561 113.105 116.003 113.151 116.387 113.116C116.77 113.082 117.11 112.91 117.407 112.602C117.709 112.3 117.985 111.809 118.235 111.129L118.619 110.083L113.667 96.6221H115.899L119.595 107.293H119.734L123.431 96.6221H125.663L119.979 111.966C119.723 112.657 119.406 113.23 119.028 113.683C118.651 114.142 118.212 114.482 117.712 114.703C117.218 114.924 116.66 115.034 116.038 115.034ZM130.157 92.1586V98.296H128.239V92.1586H130.157ZM143.305 99.6211L141.457 100.144C141.341 99.8361 141.17 99.5368 140.943 99.2462C140.722 98.9498 140.42 98.7057 140.036 98.5139C139.653 98.3221 139.162 98.2262 138.563 98.2262C137.743 98.2262 137.061 98.4151 136.514 98.7929C135.974 99.1649 135.703 99.6385 135.703 100.214C135.703 100.725 135.889 101.129 136.261 101.426C136.633 101.722 137.215 101.969 138.005 102.167L139.993 102.655C141.19 102.946 142.082 103.39 142.669 103.989C143.256 104.582 143.55 105.346 143.55 106.282C143.55 107.049 143.329 107.735 142.887 108.339C142.451 108.943 141.841 109.42 141.056 109.769C140.272 110.117 139.359 110.292 138.319 110.292C136.953 110.292 135.823 109.995 134.928 109.403C134.033 108.81 133.466 107.944 133.228 106.805L135.18 106.316C135.366 107.037 135.718 107.578 136.235 107.938C136.758 108.298 137.441 108.478 138.284 108.478C139.243 108.478 140.004 108.275 140.568 107.868C141.138 107.456 141.422 106.962 141.422 106.386C141.422 105.921 141.26 105.532 140.934 105.218C140.609 104.898 140.109 104.66 139.435 104.503L137.203 103.98C135.977 103.689 135.076 103.239 134.5 102.629C133.931 102.013 133.646 101.243 133.646 100.319C133.646 99.563 133.858 98.8946 134.282 98.3134C134.713 97.7322 135.297 97.276 136.035 96.9447C136.779 96.6134 137.621 96.4478 138.563 96.4478C139.888 96.4478 140.928 96.7384 141.684 97.3196C142.445 97.9008 142.986 98.6679 143.305 99.6211Z" fill="white"/>
<path d="M57.7323 210.629H56.1294C56.0346 210.168 55.8687 209.763 55.6317 209.414C55.399 209.065 55.1146 208.772 54.7785 208.535C54.4468 208.294 54.0783 208.113 53.6733 207.992C53.2683 207.872 52.846 207.811 52.4065 207.811C51.605 207.811 50.8789 208.014 50.2283 208.419C49.5819 208.824 49.067 209.421 48.6835 210.209C48.3043 210.998 48.1147 211.965 48.1147 213.111C48.1147 214.258 48.3043 215.225 48.6835 216.014C49.067 216.802 49.5819 217.399 50.2283 217.804C50.8789 218.209 51.605 218.411 52.4065 218.411C52.846 218.411 53.2683 218.351 53.6733 218.23C54.0783 218.11 54.4468 217.931 54.7785 217.694C55.1146 217.453 55.399 217.158 55.6317 216.809C55.8687 216.455 56.0346 216.05 56.1294 215.593H57.7323C57.6117 216.27 57.3919 216.875 57.0731 217.41C56.7542 217.944 56.3578 218.399 55.8838 218.773C55.4098 219.144 54.8777 219.426 54.2873 219.62C53.7013 219.814 53.0744 219.911 52.4065 219.911C51.2775 219.911 50.2735 219.635 49.3945 219.084C48.5155 218.532 47.8239 217.748 47.3197 216.731C46.8156 215.714 46.5635 214.508 46.5635 213.111C46.5635 211.715 46.8156 210.509 47.3197 209.492C47.8239 208.475 48.5155 207.691 49.3945 207.139C50.2735 206.588 51.2775 206.312 52.4065 206.312C53.0744 206.312 53.7013 206.409 54.2873 206.603C54.8777 206.797 55.4098 207.081 55.8838 207.456C56.3578 207.826 56.7542 208.279 57.0731 208.813C57.3919 209.343 57.6117 209.949 57.7323 210.629ZM64.1489 219.937C63.2527 219.937 62.4663 219.724 61.7898 219.297C61.1176 218.87 60.5919 218.274 60.2127 217.507C59.8378 216.74 59.6504 215.843 59.6504 214.818C59.6504 213.784 59.8378 212.881 60.2127 212.11C60.5919 211.338 61.1176 210.739 61.7898 210.313C62.4663 209.886 63.2527 209.673 64.1489 209.673C65.0452 209.673 65.8294 209.886 66.5016 210.313C67.1781 210.739 67.7038 211.338 68.0787 212.11C68.4579 212.881 68.6475 213.784 68.6475 214.818C68.6475 215.843 68.4579 216.74 68.0787 217.507C67.7038 218.274 67.1781 218.87 66.5016 219.297C65.8294 219.724 65.0452 219.937 64.1489 219.937ZM64.1489 218.567C64.8297 218.567 65.3899 218.392 65.8294 218.043C66.2689 217.694 66.5943 217.235 66.8054 216.666C67.0165 216.098 67.1221 215.481 67.1221 214.818C67.1221 214.154 67.0165 213.536 66.8054 212.963C66.5943 212.39 66.2689 211.926 65.8294 211.573C65.3899 211.22 64.8297 211.043 64.1489 211.043C63.4681 211.043 62.9079 211.22 62.4684 211.573C62.0289 211.926 61.7036 212.39 61.4924 212.963C61.2813 213.536 61.1757 214.154 61.1757 214.818C61.1757 215.481 61.2813 216.098 61.4924 216.666C61.7036 217.235 62.0289 217.694 62.4684 218.043C62.9079 218.392 63.4681 218.567 64.1489 218.567ZM72.5013 213.758V219.73H70.9759V209.802H72.4496V211.353H72.5789C72.8115 210.849 73.1649 210.444 73.6389 210.138C74.1128 209.828 74.7247 209.673 75.4745 209.673C76.1467 209.673 76.7348 209.811 77.239 210.087C77.7431 210.358 78.1353 210.772 78.4153 211.328C78.6954 211.879 78.8355 212.577 78.8355 213.422V219.73H77.3101V213.525C77.3101 212.745 77.1076 212.138 76.7025 211.702C76.2975 211.263 75.7416 211.043 75.035 211.043C74.548 211.043 74.1128 211.149 73.7293 211.36C73.3502 211.571 73.0507 211.879 72.8309 212.284C72.6112 212.689 72.5013 213.18 72.5013 213.758ZM85.9404 209.802V211.095H80.7955V209.802H85.9404ZM82.295 207.424H83.8204V216.886C83.8204 217.317 83.8829 217.64 84.0078 217.856C84.1371 218.067 84.3008 218.209 84.4991 218.282C84.7016 218.351 84.9149 218.386 85.1389 218.386C85.307 218.386 85.4449 218.377 85.5526 218.36C85.6603 218.338 85.7465 218.321 85.8111 218.308L86.1214 219.678C86.018 219.717 85.8736 219.756 85.6883 219.795C85.503 219.838 85.2682 219.859 84.9838 219.859C84.5529 219.859 84.1306 219.767 83.717 219.581C83.3076 219.396 82.9672 219.114 82.6958 218.735C82.4286 218.355 82.295 217.877 82.295 217.3V207.424ZM88.2349 219.73V209.802H89.7603V219.73H88.2349ZM89.0105 208.148C88.7132 208.148 88.4568 208.046 88.2414 207.844C88.0302 207.641 87.9247 207.398 87.9247 207.113C87.9247 206.829 88.0302 206.586 88.2414 206.383C88.4568 206.18 88.7132 206.079 89.0105 206.079C89.3078 206.079 89.5621 206.18 89.7732 206.383C89.9887 206.586 90.0964 206.829 90.0964 207.113C90.0964 207.398 89.9887 207.641 89.7732 207.844C89.5621 208.046 89.3078 208.148 89.0105 208.148ZM94.0795 213.758V219.73H92.5541V209.802H94.0278V211.353H94.157C94.3897 210.849 94.7431 210.444 95.217 210.138C95.691 209.828 96.3029 209.673 97.0527 209.673C97.7249 209.673 98.313 209.811 98.8172 210.087C99.3213 210.358 99.7134 210.772 99.9935 211.328C100.274 211.879 100.414 212.577 100.414 213.422V219.73H98.8883V213.525C98.8883 212.745 98.6858 212.138 98.2807 211.702C97.8757 211.263 97.3198 211.043 96.6131 211.043C96.1262 211.043 95.691 211.149 95.3075 211.36C94.9283 211.571 94.6289 211.879 94.4091 212.284C94.1894 212.689 94.0795 213.18 94.0795 213.758ZM109.458 215.671V209.802H110.983V219.73H109.458V218.049H109.354C109.122 218.554 108.76 218.982 108.268 219.336C107.777 219.685 107.157 219.859 106.407 219.859C105.786 219.859 105.235 219.724 104.752 219.452C104.27 219.176 103.89 218.763 103.615 218.211C103.339 217.655 103.201 216.955 103.201 216.11V209.802H104.726V216.007C104.726 216.731 104.929 217.308 105.334 217.739C105.743 218.17 106.265 218.386 106.898 218.386C107.277 218.386 107.663 218.289 108.055 218.095C108.451 217.901 108.783 217.604 109.05 217.203C109.322 216.802 109.458 216.291 109.458 215.671ZM117.939 219.937C116.983 219.937 116.158 219.726 115.464 219.303C114.774 218.877 114.242 218.282 113.867 217.519C113.497 216.752 113.311 215.861 113.311 214.844C113.311 213.827 113.497 212.93 113.867 212.155C114.242 211.375 114.764 210.767 115.431 210.332C116.104 209.893 116.888 209.673 117.784 209.673C118.301 209.673 118.812 209.759 119.316 209.931C119.82 210.104 120.279 210.384 120.693 210.772C121.106 211.155 121.436 211.664 121.682 212.297C121.927 212.93 122.05 213.71 122.05 214.637V215.283H114.397V213.965H120.499C120.499 213.404 120.387 212.905 120.163 212.465C119.943 212.026 119.628 211.679 119.219 211.424C118.814 211.17 118.336 211.043 117.784 211.043C117.177 211.043 116.651 211.194 116.207 211.496C115.768 211.793 115.429 212.181 115.192 212.659C114.955 213.137 114.837 213.65 114.837 214.197V215.076C114.837 215.826 114.966 216.462 115.225 216.983C115.487 217.5 115.852 217.894 116.317 218.166C116.782 218.433 117.323 218.567 117.939 218.567C118.34 218.567 118.702 218.511 119.025 218.399C119.353 218.282 119.635 218.11 119.872 217.881C120.109 217.649 120.292 217.36 120.421 217.015L121.895 217.429C121.74 217.929 121.479 218.368 121.113 218.748C120.747 219.122 120.294 219.415 119.755 219.627C119.217 219.833 118.611 219.937 117.939 219.937Z" fill="white"/>
</g>
<defs>
<clipPath id="clip0_0_1">
<rect width="468.919" height="311.124" fill="white"/>
</clipPath>
</defs>
</svg>
