<svg width="469" height="312" viewBox="0 0 469 312" fill="none" xmlns="http://www.w3.org/2000/svg">
<rect width="469" height="312" fill="#1E1E1E"/>
<g clip-path="url(#clip0_0_1)">
<path d="M7.41671 299.343L4.67407 306.76H3.51521L0.772566 299.343H2.00869L4.05601 305.253H4.13327L6.18059 299.343H7.41671ZM12.3781 296.871V306.76H11.1806V298.126H11.1227L8.70836 299.729V298.512L11.1806 296.871H12.3781ZM15.4877 306.837C15.2495 306.837 15.0451 306.752 14.8745 306.581C14.7039 306.41 14.6186 306.206 14.6186 305.968C14.6186 305.73 14.7039 305.525 14.8745 305.355C15.0451 305.184 15.2495 305.099 15.4877 305.099C15.7259 305.099 15.9303 305.184 16.1009 305.355C16.2715 305.525 16.3569 305.73 16.3569 305.968C16.3569 306.125 16.3166 306.27 16.2361 306.402C16.1589 306.534 16.0543 306.641 15.9223 306.721C15.7935 306.798 15.6487 306.837 15.4877 306.837ZM21.2627 306.895C20.5352 306.895 19.9155 306.697 19.4037 306.301C18.8919 305.902 18.5007 305.324 18.2303 304.567C17.9599 303.808 17.8247 302.89 17.8247 301.815C17.8247 300.746 17.9599 299.834 18.2303 299.077C18.504 298.318 18.8967 297.738 19.4085 297.339C19.9236 296.937 20.5416 296.735 21.2627 296.735C21.9838 296.735 22.6002 296.937 23.1121 297.339C23.6271 297.738 24.0198 298.318 24.2902 299.077C24.5639 299.834 24.7007 300.746 24.7007 301.815C24.7007 302.89 24.5655 303.808 24.2951 304.567C24.0247 305.324 23.6335 305.902 23.1217 306.301C22.6099 306.697 21.9902 306.895 21.2627 306.895ZM21.2627 305.833C21.9838 305.833 22.5439 305.485 22.9431 304.79C23.3422 304.094 23.5418 303.103 23.5418 301.815C23.5418 300.959 23.4501 300.23 23.2666 299.628C23.0863 299.026 22.8256 298.567 22.4843 298.252C22.1463 297.936 21.7391 297.778 21.2627 297.778C20.5481 297.778 19.9896 298.131 19.5872 298.836C19.1848 299.538 18.9836 300.531 18.9836 301.815C18.9836 302.671 19.0737 303.399 19.254 303.998C19.4343 304.596 19.6934 305.052 20.0314 305.364C20.3726 305.676 20.7831 305.833 21.2627 305.833ZM27.0401 306.837C26.8019 306.837 26.5975 306.752 26.4269 306.581C26.2563 306.41 26.171 306.206 26.171 305.968C26.171 305.73 26.2563 305.525 26.4269 305.355C26.5975 305.184 26.8019 305.099 27.0401 305.099C27.2783 305.099 27.4827 305.184 27.6533 305.355C27.824 305.525 27.9093 305.73 27.9093 305.968C27.9093 306.125 27.869 306.27 27.7885 306.402C27.7113 306.534 27.6067 306.641 27.4747 306.721C27.3459 306.798 27.2011 306.837 27.0401 306.837ZM29.7031 304.732V303.747L34.0488 296.871H34.7634V298.397H34.2806L30.9971 303.592V303.669H36.8494V304.732H29.7031ZM34.3578 306.76V304.432V303.974V296.871H35.4974V306.76H34.3578ZM44.685 306.933C44.215 306.933 43.7885 306.845 43.4054 306.668C43.0224 306.488 42.7182 306.228 42.4928 305.89C42.2675 305.549 42.1548 305.137 42.1548 304.654C42.1548 304.229 42.2385 303.885 42.4059 303.621C42.5733 303.354 42.797 303.145 43.0771 302.993C43.3571 302.842 43.6662 302.729 44.0042 302.655C44.3454 302.578 44.6882 302.517 45.0327 302.472C45.4833 302.414 45.8487 302.37 46.1288 302.341C46.412 302.309 46.6181 302.256 46.7468 302.182C46.8788 302.108 46.9448 301.979 46.9448 301.796V301.757C46.9448 301.281 46.8144 300.911 46.5537 300.647C46.2961 300.383 45.905 300.251 45.3803 300.251C44.8363 300.251 44.4098 300.37 44.1007 300.608C43.7917 300.846 43.5744 301.101 43.4489 301.371L42.3673 300.985C42.5604 300.534 42.8179 300.183 43.1399 299.932C43.465 299.678 43.8191 299.501 44.2021 299.401C44.5884 299.298 44.9683 299.246 45.3417 299.246C45.5799 299.246 45.8535 299.275 46.1626 299.333C46.4748 299.388 46.7758 299.502 47.0655 299.676C47.3584 299.85 47.6015 300.112 47.7946 300.463C47.9878 300.814 48.0843 301.284 48.0843 301.873V306.76H46.9448V305.755H46.8868C46.8096 305.916 46.6808 306.088 46.5006 306.272C46.3203 306.455 46.0805 306.612 45.7811 306.74C45.4817 306.869 45.1164 306.933 44.685 306.933ZM44.8588 305.91C45.3095 305.91 45.6894 305.821 45.9984 305.644C46.3106 305.467 46.5456 305.239 46.7034 304.959C46.8643 304.679 46.9448 304.384 46.9448 304.075V303.032C46.8965 303.09 46.7903 303.143 46.6261 303.191C46.4651 303.236 46.2784 303.277 46.066 303.312C45.8567 303.344 45.6523 303.373 45.4528 303.399C45.2564 303.421 45.097 303.441 44.9747 303.457C44.6786 303.496 44.4017 303.558 44.1442 303.645C43.8899 303.729 43.6839 303.856 43.5261 304.027C43.3716 304.194 43.2944 304.423 43.2944 304.712C43.2944 305.108 43.4408 305.408 43.7338 305.61C44.0299 305.81 44.4049 305.91 44.8588 305.91ZM55.4178 301.004L54.3941 301.294C54.3297 301.123 54.2348 300.957 54.1092 300.796C53.9869 300.632 53.8195 300.497 53.607 300.391C53.3946 300.284 53.1226 300.231 52.791 300.231C52.3371 300.231 51.9589 300.336 51.6563 300.545C51.3569 300.751 51.2072 301.014 51.2072 301.332C51.2072 301.616 51.3102 301.839 51.5163 302.003C51.7223 302.168 52.0442 302.304 52.482 302.414L53.5829 302.684C54.246 302.845 54.7401 303.092 55.0653 303.423C55.3904 303.751 55.553 304.175 55.553 304.693C55.553 305.118 55.4306 305.498 55.186 305.833C54.9446 306.167 54.6066 306.431 54.172 306.624C53.7374 306.818 53.232 306.914 52.6558 306.914C51.8993 306.914 51.2732 306.75 50.7775 306.422C50.2817 306.093 49.9679 305.614 49.8359 304.983L50.9175 304.712C51.0205 305.111 51.2153 305.411 51.5018 305.61C51.7915 305.81 52.1697 305.91 52.6365 305.91C53.1676 305.91 53.5893 305.797 53.9016 305.572C54.217 305.343 54.3748 305.07 54.3748 304.751C54.3748 304.493 54.2846 304.278 54.1044 304.104C53.9241 303.927 53.6473 303.795 53.2739 303.708L52.0377 303.418C51.3585 303.257 50.8596 303.008 50.5409 302.67C50.2254 302.329 50.0677 301.902 50.0677 301.39C50.0677 300.972 50.1852 300.602 50.4202 300.28C50.6584 299.958 50.9819 299.705 51.3907 299.522C51.8028 299.338 52.2695 299.246 52.791 299.246C53.525 299.246 54.1012 299.407 54.5196 299.729C54.9413 300.051 55.2407 300.476 55.4178 301.004ZM60.4938 299.343V300.309H56.6503V299.343H60.4938ZM57.7705 297.566H58.91V304.635C58.91 304.957 58.9567 305.198 59.0501 305.359C59.1466 305.517 59.269 305.623 59.417 305.678C59.5683 305.73 59.7277 305.755 59.8951 305.755C60.0206 305.755 60.1236 305.749 60.2041 305.736C60.2846 305.72 60.349 305.707 60.3972 305.697L60.629 306.721C60.5518 306.75 60.4439 306.779 60.3055 306.808C60.1671 306.84 59.9916 306.856 59.7792 306.856C59.4573 306.856 59.1418 306.787 58.8328 306.649C58.527 306.51 58.2727 306.299 58.0699 306.016C57.8703 305.733 57.7705 305.375 57.7705 304.944V297.566ZM62.208 306.76V299.343H63.3089V300.463H63.3861C63.5213 300.096 63.766 299.798 64.1201 299.57C64.4742 299.341 64.8734 299.227 65.3176 299.227C65.4013 299.227 65.5059 299.229 65.6314 299.232C65.757 299.235 65.8519 299.24 65.9163 299.246V300.405C65.8777 300.396 65.7892 300.381 65.6508 300.362C65.5156 300.339 65.3723 300.328 65.221 300.328C64.8605 300.328 64.5386 300.404 64.2553 300.555C63.9752 300.703 63.7531 300.909 63.5889 301.173C63.428 301.434 63.3475 301.731 63.3475 302.066V306.76H62.208ZM70.0544 306.914C69.3849 306.914 68.7974 306.755 68.292 306.436C67.7898 306.117 67.3971 305.672 67.1138 305.099C66.8338 304.526 66.6937 303.856 66.6937 303.09C66.6937 302.317 66.8338 301.643 67.1138 301.067C67.3971 300.491 67.7898 300.043 68.292 299.724C68.7974 299.406 69.3849 299.246 70.0544 299.246C70.724 299.246 71.3099 299.406 71.812 299.724C72.3174 300.043 72.7102 300.491 72.9902 301.067C73.2735 301.643 73.4151 302.317 73.4151 303.09C73.4151 303.856 73.2735 304.526 72.9902 305.099C72.7102 305.672 72.3174 306.117 71.812 306.436C71.3099 306.755 70.724 306.914 70.0544 306.914ZM70.0544 305.89C70.563 305.89 70.9815 305.76 71.3099 305.499C71.6382 305.239 71.8812 304.896 72.039 304.471C72.1967 304.046 72.2756 303.586 72.2756 303.09C72.2756 302.594 72.1967 302.132 72.039 301.704C71.8812 301.276 71.6382 300.93 71.3099 300.666C70.9815 300.402 70.563 300.27 70.0544 300.27C69.5458 300.27 69.1273 300.402 68.799 300.666C68.4707 300.93 68.2276 301.276 68.0699 301.704C67.9121 302.132 67.8333 302.594 67.8333 303.09C67.8333 303.586 67.9121 304.046 68.0699 304.471C68.2276 304.896 68.4707 305.239 68.799 305.499C69.1273 305.76 69.5458 305.89 70.0544 305.89ZM79.4038 301.989V303.051H75.0774V301.989H79.4038ZM84.4026 309.695C83.8521 309.695 83.3789 309.625 82.983 309.483C82.5871 309.345 82.2571 309.161 81.9931 308.933C81.7324 308.707 81.5248 308.466 81.3702 308.208L82.278 307.571C82.381 307.706 82.5114 307.861 82.6691 308.034C82.8269 308.211 83.0425 308.364 83.3162 308.493C83.593 308.625 83.9552 308.691 84.4026 308.691C85.0013 308.691 85.4955 308.546 85.885 308.257C86.2745 307.967 86.4692 307.513 86.4692 306.895V305.388H86.3727C86.289 305.524 86.1699 305.691 86.0154 305.89C85.8641 306.087 85.6452 306.262 85.3587 306.417C85.0754 306.568 84.6923 306.644 84.2095 306.644C83.6107 306.644 83.0731 306.502 82.5967 306.219C82.1235 305.936 81.7485 305.524 81.4716 304.983C81.198 304.442 81.0612 303.785 81.0612 303.013C81.0612 302.253 81.1948 301.591 81.462 301.028C81.7292 300.462 82.101 300.024 82.5774 299.715C83.0538 299.402 83.6043 299.246 84.2288 299.246C84.7116 299.246 85.0947 299.327 85.378 299.488C85.6645 299.646 85.8834 299.826 86.0347 300.029C86.1892 300.228 86.3083 300.392 86.392 300.521H86.5079V299.343H87.6088V306.972C87.6088 307.609 87.4639 308.128 87.1742 308.527C86.8877 308.929 86.5014 309.224 86.0154 309.411C85.5325 309.6 84.9949 309.695 84.4026 309.695ZM84.364 305.62C84.8211 305.62 85.2074 305.515 85.5228 305.306C85.8383 305.097 86.0781 304.796 86.2423 304.403C86.4065 304.011 86.4886 303.541 86.4886 302.993C86.4886 302.459 86.4081 301.987 86.2471 301.579C86.0862 301.17 85.848 300.849 85.5325 300.618C85.217 300.386 84.8275 300.27 84.364 300.27C83.8811 300.27 83.4787 300.392 83.1568 300.637C82.8381 300.882 82.5983 301.21 82.4374 301.622C82.2796 302.034 82.2008 302.491 82.2008 302.993C82.2008 303.508 82.2812 303.964 82.4422 304.36C82.6064 304.753 82.8478 305.062 83.1665 305.287C83.4884 305.509 83.8876 305.62 84.364 305.62ZM91.8773 306.933C91.4073 306.933 90.9808 306.845 90.5977 306.668C90.2146 306.488 89.9104 306.228 89.6851 305.89C89.4597 305.549 89.3471 305.137 89.3471 304.654C89.3471 304.229 89.4308 303.885 89.5982 303.621C89.7656 303.354 89.9893 303.145 90.2693 302.993C90.5494 302.842 90.8584 302.729 91.1964 302.655C91.5377 302.578 91.8805 302.517 92.2249 302.472C92.6756 302.414 93.041 302.37 93.321 302.341C93.6043 302.309 93.8103 302.256 93.9391 302.182C94.0711 302.108 94.137 301.979 94.137 301.796V301.757C94.137 301.281 94.0067 300.911 93.7459 300.647C93.4884 300.383 93.0973 300.251 92.5726 300.251C92.0286 300.251 91.602 300.37 91.293 300.608C90.984 300.846 90.7667 301.101 90.6411 301.371L89.5595 300.985C89.7527 300.534 90.0102 300.183 90.3321 299.932C90.6572 299.678 91.0113 299.501 91.3944 299.401C91.7807 299.298 92.1605 299.246 92.534 299.246C92.7722 299.246 93.0458 299.275 93.3548 299.333C93.6671 299.388 93.968 299.502 94.2578 299.676C94.5507 299.85 94.7937 300.112 94.9869 300.463C95.18 300.814 95.2766 301.284 95.2766 301.873V306.76H94.137V305.755H94.0791C94.0018 305.916 93.8731 306.088 93.6928 306.272C93.5125 306.455 93.2727 306.612 92.9734 306.74C92.674 306.869 92.3086 306.933 91.8773 306.933ZM92.0511 305.91C92.5018 305.91 92.8816 305.821 93.1906 305.644C93.5029 305.467 93.7379 305.239 93.8956 304.959C94.0566 304.679 94.137 304.384 94.137 304.075V303.032C94.0888 303.09 93.9825 303.143 93.8184 303.191C93.6574 303.236 93.4707 303.277 93.2582 303.312C93.049 303.344 92.8446 303.373 92.645 303.399C92.4486 303.421 92.2893 303.441 92.167 303.457C91.8708 303.496 91.594 303.558 91.3365 303.645C91.0822 303.729 90.8761 303.856 90.7184 304.027C90.5639 304.194 90.4866 304.423 90.4866 304.712C90.4866 305.108 90.6331 305.408 90.926 305.61C91.2222 305.81 91.5972 305.91 92.0511 305.91ZM97.3565 306.76V299.343H98.4574V300.502H98.554C98.7085 300.106 98.958 299.798 99.3024 299.58C99.6469 299.357 100.061 299.246 100.543 299.246C101.033 299.246 101.44 299.357 101.765 299.58C102.093 299.798 102.349 300.106 102.533 300.502H102.61C102.8 300.119 103.085 299.815 103.465 299.589C103.845 299.361 104.3 299.246 104.831 299.246C105.494 299.246 106.037 299.454 106.458 299.869C106.88 300.281 107.091 300.923 107.091 301.796V306.76H105.951V301.796C105.951 301.249 105.802 300.857 105.502 300.623C105.203 300.388 104.85 300.27 104.445 300.27C103.923 300.27 103.519 300.428 103.233 300.743C102.946 301.055 102.803 301.451 102.803 301.931V306.76H101.644V301.68C101.644 301.258 101.507 300.919 101.234 300.661C100.96 300.4 100.608 300.27 100.176 300.27C99.8803 300.27 99.6034 300.349 99.3459 300.507C99.0916 300.664 98.8856 300.883 98.7278 301.163C98.5733 301.44 98.4961 301.76 98.4961 302.124V306.76H97.3565ZM112.284 306.914C111.569 306.914 110.953 306.756 110.435 306.441C109.92 306.122 109.522 305.678 109.242 305.108C108.965 304.535 108.827 303.869 108.827 303.109C108.827 302.35 108.965 301.68 109.242 301.101C109.522 300.518 109.912 300.064 110.411 299.739C110.913 299.411 111.499 299.246 112.168 299.246C112.555 299.246 112.936 299.311 113.313 299.439C113.689 299.568 114.032 299.777 114.341 300.067C114.65 300.354 114.896 300.734 115.08 301.207C115.263 301.68 115.355 302.263 115.355 302.955V303.438H109.638V302.453H114.196C114.196 302.034 114.113 301.661 113.945 301.332C113.781 301.004 113.546 300.745 113.24 300.555C112.938 300.365 112.58 300.27 112.168 300.27C111.714 300.27 111.322 300.383 110.99 300.608C110.662 300.83 110.409 301.12 110.232 301.477C110.055 301.834 109.966 302.218 109.966 302.626V303.283C109.966 303.843 110.063 304.318 110.256 304.707C110.452 305.094 110.724 305.388 111.072 305.591C111.42 305.791 111.824 305.89 112.284 305.89C112.583 305.89 112.854 305.849 113.095 305.765C113.34 305.678 113.551 305.549 113.728 305.379C113.905 305.205 114.042 304.989 114.138 304.732L115.239 305.041C115.123 305.414 114.929 305.742 114.655 306.026C114.381 306.306 114.043 306.525 113.641 306.682C113.239 306.837 112.786 306.914 112.284 306.914ZM122.342 301.004L121.318 301.294C121.254 301.123 121.159 300.957 121.034 300.796C120.911 300.632 120.744 300.497 120.531 300.391C120.319 300.284 120.047 300.231 119.715 300.231C119.261 300.231 118.883 300.336 118.581 300.545C118.281 300.751 118.132 301.014 118.132 301.332C118.132 301.616 118.235 301.839 118.441 302.003C118.647 302.168 118.968 302.304 119.406 302.414L120.507 302.684C121.17 302.845 121.664 303.092 121.99 303.423C122.315 303.751 122.477 304.175 122.477 304.693C122.477 305.118 122.355 305.498 122.11 305.833C121.869 306.167 121.531 306.431 121.096 306.624C120.662 306.818 120.156 306.914 119.58 306.914C118.824 306.914 118.198 306.75 117.702 306.422C117.206 306.093 116.892 305.614 116.76 304.983L117.842 304.712C117.945 305.111 118.14 305.411 118.426 305.61C118.716 305.81 119.094 305.91 119.561 305.91C120.092 305.91 120.514 305.797 120.826 305.572C121.141 305.343 121.299 305.07 121.299 304.751C121.299 304.493 121.209 304.278 121.029 304.104C120.848 303.927 120.572 303.795 120.198 303.708L118.962 303.418C118.283 303.257 117.784 303.008 117.465 302.67C117.15 302.329 116.992 301.902 116.992 301.39C116.992 300.972 117.109 300.602 117.344 300.28C117.583 299.958 117.906 299.705 118.315 299.522C118.727 299.338 119.194 299.246 119.715 299.246C120.449 299.246 121.025 299.407 121.444 299.729C121.866 300.051 122.165 300.476 122.342 301.004Z" fill="white"/>
<path d="M339.085 306.009V305.139L342.352 301.562C342.736 301.143 343.052 300.779 343.3 300.47C343.548 300.157 343.732 299.864 343.851 299.59C343.973 299.313 344.034 299.023 344.034 298.72C344.034 298.372 343.951 298.071 343.783 297.816C343.619 297.562 343.393 297.365 343.106 297.226C342.82 297.088 342.497 297.019 342.14 297.019C341.759 297.019 341.427 297.098 341.144 297.255C340.863 297.41 340.646 297.628 340.491 297.908C340.34 298.188 340.264 298.517 340.264 298.894H339.123C339.123 298.314 339.257 297.805 339.525 297.367C339.792 296.928 340.156 296.587 340.617 296.342C341.081 296.097 341.601 295.975 342.178 295.975C342.758 295.975 343.272 296.097 343.72 296.342C344.168 296.587 344.519 296.917 344.774 297.333C345.029 297.749 345.156 298.211 345.156 298.72C345.156 299.084 345.09 299.44 344.958 299.788C344.829 300.133 344.603 300.518 344.281 300.944C343.962 301.366 343.519 301.881 342.952 302.49L340.728 304.869V304.946H345.33V306.009H339.085ZM350.555 306.145C349.827 306.145 349.207 305.947 348.694 305.55C348.182 305.151 347.79 304.572 347.52 303.815C347.249 303.054 347.114 302.136 347.114 301.06C347.114 299.99 347.249 299.076 347.52 298.319C347.793 297.558 348.187 296.978 348.699 296.579C349.215 296.176 349.833 295.975 350.555 295.975C351.277 295.975 351.894 296.176 352.406 296.579C352.922 296.978 353.315 297.558 353.586 298.319C353.86 299.076 353.997 299.99 353.997 301.06C353.997 302.136 353.861 303.054 353.591 303.815C353.32 304.572 352.929 305.151 352.416 305.55C351.904 305.947 351.283 306.145 350.555 306.145ZM350.555 305.081C351.277 305.081 351.838 304.733 352.237 304.037C352.637 303.341 352.837 302.349 352.837 301.06C352.837 300.202 352.745 299.473 352.561 298.87C352.381 298.267 352.12 297.808 351.778 297.492C351.44 297.177 351.032 297.019 350.555 297.019C349.84 297.019 349.281 297.371 348.878 298.077C348.475 298.78 348.274 299.774 348.274 301.06C348.274 301.917 348.364 302.645 348.544 303.244C348.725 303.844 348.984 304.3 349.323 304.612C349.664 304.925 350.075 305.081 350.555 305.081ZM359.314 296.11V306.009H358.115V297.367H358.057L355.64 298.971V297.753L358.115 296.11H359.314ZM361.929 303.979V302.993L366.279 296.11H366.995V297.637H366.511L363.224 302.838V302.916H369.083V303.979H361.929ZM366.589 306.009V303.68V303.22V296.11H367.729V306.009H366.589ZM380.311 298.585C380.253 298.095 380.017 297.715 379.605 297.444C379.192 297.173 378.686 297.038 378.087 297.038C377.649 297.038 377.265 297.109 376.937 297.251C376.611 297.392 376.356 297.587 376.173 297.836C375.992 298.084 375.902 298.366 375.902 298.681C375.902 298.946 375.965 299.173 376.091 299.363C376.22 299.55 376.384 299.706 376.584 299.832C376.783 299.954 376.993 300.056 377.212 300.136C377.431 300.214 377.633 300.277 377.816 300.325L378.822 300.596C379.08 300.663 379.366 300.757 379.682 300.876C380.001 300.995 380.306 301.158 380.596 301.364C380.889 301.567 381.131 301.828 381.321 302.147C381.511 302.466 381.606 302.858 381.606 303.322C381.606 303.857 381.466 304.34 381.185 304.772C380.908 305.204 380.502 305.547 379.967 305.802C379.436 306.056 378.789 306.183 378.029 306.183C377.32 306.183 376.706 306.069 376.187 305.84C375.672 305.611 375.266 305.292 374.969 304.883C374.676 304.474 374.51 303.999 374.471 303.457H375.709C375.741 303.831 375.867 304.14 376.086 304.385C376.308 304.627 376.589 304.807 376.927 304.927C377.268 305.043 377.636 305.101 378.029 305.101C378.487 305.101 378.897 305.027 379.262 304.878C379.626 304.727 379.914 304.517 380.127 304.25C380.34 303.979 380.446 303.663 380.446 303.302C380.446 302.974 380.354 302.706 380.17 302.5C379.987 302.294 379.745 302.126 379.445 301.997C379.146 301.868 378.822 301.756 378.474 301.659L377.256 301.311C376.482 301.089 375.87 300.771 375.419 300.359C374.968 299.946 374.742 299.406 374.742 298.739C374.742 298.185 374.892 297.702 375.192 297.289C375.494 296.874 375.901 296.551 376.41 296.323C376.922 296.091 377.494 295.975 378.126 295.975C378.764 295.975 379.331 296.089 379.827 296.318C380.323 296.543 380.717 296.853 381.007 297.246C381.3 297.639 381.454 298.085 381.471 298.585H380.311ZM386.438 306.164C385.742 306.164 385.143 306 384.64 305.671C384.138 305.342 383.751 304.89 383.48 304.313C383.21 303.736 383.074 303.077 383.074 302.336C383.074 301.582 383.213 300.916 383.49 300.339C383.77 299.759 384.16 299.307 384.66 298.981C385.162 298.652 385.749 298.488 386.419 298.488C386.941 298.488 387.412 298.585 387.831 298.778C388.25 298.971 388.593 299.242 388.86 299.59C389.128 299.938 389.294 300.344 389.358 300.808H388.217C388.13 300.47 387.937 300.17 387.637 299.909C387.341 299.645 386.941 299.513 386.438 299.513C385.994 299.513 385.604 299.629 385.269 299.861C384.937 300.09 384.677 300.414 384.49 300.832C384.307 301.248 384.215 301.736 384.215 302.297C384.215 302.871 384.305 303.37 384.486 303.796C384.669 304.221 384.927 304.551 385.259 304.786C385.594 305.022 385.987 305.139 386.438 305.139C386.735 305.139 387.004 305.088 387.246 304.985C387.487 304.882 387.692 304.733 387.86 304.54C388.027 304.347 388.146 304.115 388.217 303.844H389.358C389.294 304.282 389.134 304.677 388.88 305.028C388.628 305.376 388.295 305.653 387.879 305.86C387.466 306.063 386.986 306.164 386.438 306.164ZM394.042 306.164C393.372 306.164 392.784 306.005 392.278 305.686C391.775 305.367 391.382 304.92 391.098 304.347C390.818 303.773 390.678 303.103 390.678 302.336C390.678 301.562 390.818 300.887 391.098 300.31C391.382 299.734 391.775 299.286 392.278 298.967C392.784 298.648 393.372 298.488 394.042 298.488C394.712 298.488 395.299 298.648 395.801 298.967C396.307 299.286 396.701 299.734 396.981 300.31C397.264 300.887 397.406 301.562 397.406 302.336C397.406 303.103 397.264 303.773 396.981 304.347C396.701 304.92 396.307 305.367 395.801 305.686C395.299 306.005 394.712 306.164 394.042 306.164ZM394.042 305.139C394.551 305.139 394.97 305.009 395.299 304.748C395.627 304.487 395.871 304.144 396.029 303.718C396.187 303.293 396.266 302.832 396.266 302.336C396.266 301.839 396.187 301.377 396.029 300.948C395.871 300.52 395.627 300.173 395.299 299.909C394.97 299.645 394.551 299.513 394.042 299.513C393.533 299.513 393.114 299.645 392.785 299.909C392.457 300.173 392.213 300.52 392.055 300.948C391.897 301.377 391.818 301.839 391.818 302.336C391.818 302.832 391.897 303.293 392.055 303.718C392.213 304.144 392.457 304.487 392.785 304.748C393.114 305.009 393.533 305.139 394.042 305.139ZM402.377 298.585V299.552H398.529V298.585H402.377ZM399.65 296.806H400.791V303.883C400.791 304.205 400.838 304.446 400.931 304.608C401.028 304.766 401.15 304.872 401.299 304.927C401.45 304.978 401.61 305.004 401.777 305.004C401.903 305.004 402.006 304.998 402.087 304.985C402.167 304.969 402.232 304.956 402.28 304.946L402.512 305.971C402.435 306 402.327 306.029 402.188 306.058C402.049 306.09 401.874 306.106 401.661 306.106C401.339 306.106 401.023 306.037 400.714 305.898C400.408 305.76 400.153 305.549 399.95 305.265C399.75 304.981 399.65 304.624 399.65 304.192V296.806ZM407.322 298.585V299.552H403.474V298.585H407.322ZM404.595 296.806H405.736V303.883C405.736 304.205 405.783 304.446 405.876 304.608C405.973 304.766 406.095 304.872 406.244 304.927C406.395 304.978 406.555 305.004 406.722 305.004C406.848 305.004 406.951 304.998 407.031 304.985C407.112 304.969 407.176 304.956 407.225 304.946L407.457 305.971C407.38 306 407.272 306.029 407.133 306.058C406.994 306.09 406.819 306.106 406.606 306.106C406.284 306.106 405.968 306.037 405.659 305.898C405.353 305.76 405.098 305.549 404.895 305.265C404.695 304.981 404.595 304.624 404.595 304.192V296.806ZM420.987 299.203H419.788C419.717 298.859 419.593 298.556 419.416 298.295C419.242 298.034 419.029 297.815 418.777 297.637C418.529 297.457 418.254 297.322 417.951 297.231C417.648 297.141 417.332 297.096 417.004 297.096C416.404 297.096 415.861 297.247 415.375 297.55C414.891 297.853 414.506 298.3 414.219 298.889C413.936 299.479 413.794 300.202 413.794 301.06C413.794 301.917 413.936 302.64 414.219 303.23C414.506 303.82 414.891 304.266 415.375 304.569C415.861 304.872 416.404 305.023 417.004 305.023C417.332 305.023 417.648 304.978 417.951 304.888C418.254 304.798 418.529 304.664 418.777 304.487C419.029 304.306 419.242 304.086 419.416 303.825C419.593 303.56 419.717 303.257 419.788 302.916H420.987C420.896 303.422 420.732 303.874 420.493 304.274C420.255 304.674 419.959 305.014 419.604 305.294C419.25 305.571 418.852 305.782 418.41 305.927C417.972 306.072 417.503 306.145 417.004 306.145C416.159 306.145 415.408 305.939 414.751 305.526C414.094 305.114 413.576 304.527 413.199 303.767C412.822 303.006 412.634 302.104 412.634 301.06C412.634 300.016 412.822 299.113 413.199 298.353C413.576 297.592 414.094 297.006 414.751 296.593C415.408 296.181 416.159 295.975 417.004 295.975C417.503 295.975 417.972 296.047 418.41 296.192C418.852 296.337 419.25 296.55 419.604 296.83C419.959 297.107 420.255 297.446 420.493 297.845C420.732 298.242 420.896 298.694 420.987 299.203ZM424.954 306.183C424.483 306.183 424.056 306.095 423.673 305.918C423.289 305.737 422.985 305.478 422.759 305.139C422.534 304.798 422.421 304.385 422.421 303.902C422.421 303.477 422.505 303.132 422.672 302.867C422.84 302.6 423.064 302.391 423.344 302.239C423.625 302.088 423.934 301.975 424.272 301.901C424.614 301.823 424.957 301.762 425.302 301.717C425.753 301.659 426.119 301.616 426.399 301.587C426.683 301.554 426.889 301.501 427.018 301.427C427.15 301.353 427.216 301.224 427.216 301.04V301.002C427.216 300.525 427.085 300.154 426.824 299.89C426.567 299.626 426.175 299.494 425.65 299.494C425.105 299.494 424.678 299.613 424.369 299.851C424.06 300.09 423.842 300.344 423.716 300.615L422.634 300.228C422.827 299.777 423.085 299.426 423.407 299.174C423.732 298.92 424.087 298.743 424.47 298.643C424.857 298.54 425.237 298.488 425.611 298.488C425.85 298.488 426.124 298.517 426.433 298.575C426.746 298.63 427.047 298.744 427.337 298.918C427.63 299.092 427.873 299.355 428.067 299.706C428.26 300.057 428.357 300.528 428.357 301.118V306.009H427.216V305.004H427.158C427.081 305.165 426.952 305.338 426.771 305.521C426.591 305.705 426.351 305.861 426.051 305.99C425.751 306.119 425.386 306.183 424.954 306.183ZM425.128 305.159C425.579 305.159 425.959 305.07 426.269 304.893C426.581 304.716 426.816 304.487 426.974 304.206C427.135 303.926 427.216 303.631 427.216 303.322V302.278C427.168 302.336 427.061 302.389 426.897 302.437C426.736 302.482 426.549 302.523 426.336 302.558C426.127 302.59 425.922 302.619 425.722 302.645C425.526 302.668 425.366 302.687 425.244 302.703C424.947 302.742 424.67 302.805 424.412 302.892C424.158 302.975 423.952 303.103 423.794 303.273C423.639 303.441 423.562 303.67 423.562 303.96C423.562 304.356 423.708 304.656 424.002 304.859C424.298 305.059 424.673 305.159 425.128 305.159ZM432.121 306.009L429.859 298.585H431.058L432.662 304.269H432.74L434.325 298.585H435.543L437.109 304.25H437.187L438.792 298.585H439.99L437.728 306.009H436.607L434.983 300.306H434.867L433.242 306.009H432.121ZM444.727 298.585V299.552H440.88V298.585H444.727ZM442.001 296.806H443.142V303.883C443.142 304.205 443.189 304.446 443.282 304.608C443.379 304.766 443.501 304.872 443.65 304.927C443.801 304.978 443.961 305.004 444.128 305.004C444.254 305.004 444.357 304.998 444.437 304.985C444.518 304.969 444.582 304.956 444.631 304.946L444.863 305.971C444.785 306 444.678 306.029 444.539 306.058C444.4 306.09 444.225 306.106 444.012 306.106C443.69 306.106 443.374 306.037 443.065 305.898C442.759 305.76 442.504 305.549 442.301 305.265C442.101 304.981 442.001 304.624 442.001 304.192V296.806ZM447.744 301.543V306.009H446.603V296.11H447.744V299.745H447.84C448.014 299.361 448.275 299.057 448.623 298.831C448.975 298.602 449.442 298.488 450.025 298.488C450.531 298.488 450.974 298.59 451.355 298.793C451.735 298.992 452.03 299.3 452.239 299.716C452.452 300.128 452.558 300.654 452.558 301.292V306.009H451.417V301.369C451.417 300.779 451.264 300.323 450.958 300.001C450.655 299.676 450.235 299.513 449.697 299.513C449.323 299.513 448.988 299.592 448.691 299.75C448.398 299.908 448.166 300.138 447.995 300.441C447.828 300.744 447.744 301.111 447.744 301.543ZM457.661 306.164C456.991 306.164 456.403 306.005 455.897 305.686C455.394 305.367 455.001 304.92 454.718 304.347C454.437 303.773 454.297 303.103 454.297 302.336C454.297 301.562 454.437 300.887 454.718 300.31C455.001 299.734 455.394 299.286 455.897 298.967C456.403 298.648 456.991 298.488 457.661 298.488C458.332 298.488 458.918 298.648 459.421 298.967C459.927 299.286 460.32 299.734 460.6 300.31C460.884 300.887 461.026 301.562 461.026 302.336C461.026 303.103 460.884 303.773 460.6 304.347C460.32 304.92 459.927 305.367 459.421 305.686C458.918 306.005 458.332 306.164 457.661 306.164ZM457.661 305.139C458.171 305.139 458.589 305.009 458.918 304.748C459.247 304.487 459.49 304.144 459.648 303.718C459.806 303.293 459.885 302.832 459.885 302.336C459.885 301.839 459.806 301.377 459.648 300.948C459.49 300.52 459.247 300.173 458.918 299.909C458.589 299.645 458.171 299.513 457.661 299.513C457.152 299.513 456.733 299.645 456.405 299.909C456.076 300.173 455.833 300.52 455.675 300.948C455.517 301.377 455.438 301.839 455.438 302.336C455.438 302.832 455.517 303.293 455.675 303.718C455.833 304.144 456.076 304.487 456.405 304.748C456.733 305.009 457.152 305.139 457.661 305.139ZM463.908 301.543V306.009H462.767V298.585H463.869V299.745H463.966C464.14 299.368 464.404 299.065 464.759 298.836C465.113 298.604 465.571 298.488 466.131 298.488C466.634 298.488 467.074 298.591 467.451 298.797C467.828 299 468.121 299.31 468.331 299.726C468.54 300.138 468.645 300.66 468.645 301.292V306.009H467.504V301.369C467.504 300.786 467.353 300.331 467.05 300.006C466.747 299.677 466.331 299.513 465.803 299.513C465.438 299.513 465.113 299.592 464.826 299.75C464.543 299.908 464.319 300.138 464.154 300.441C463.99 300.744 463.908 301.111 463.908 301.543Z" fill="white"/>
<path d="M57.577 174.593V187.83H56.0258L48.8126 177.437H48.6833V187.83H47.0804V174.593H48.6316L55.8707 185.012H56V174.593H57.577ZM64.7401 188.037C63.7835 188.037 62.9584 187.826 62.2646 187.403C61.5752 186.977 61.0431 186.382 60.6682 185.619C60.2976 184.852 60.1123 183.961 60.1123 182.944C60.1123 181.927 60.2976 181.03 60.6682 180.255C61.0431 179.475 61.5644 178.867 62.2323 178.432C62.9045 177.993 63.6888 177.773 64.585 177.773C65.1021 177.773 65.6127 177.859 66.1169 178.031C66.621 178.204 67.0799 178.484 67.4936 178.872C67.9072 179.255 68.2369 179.764 68.4825 180.397C68.7281 181.03 68.8509 181.81 68.8509 182.737V183.383H61.1982V182.065H67.2997C67.2997 181.504 67.1876 181.005 66.9636 180.565C66.7438 180.126 66.4292 179.779 66.0199 179.524C65.6149 179.27 65.1366 179.143 64.585 179.143C63.9775 179.143 63.4518 179.294 63.0079 179.596C62.5684 179.893 62.2302 180.281 61.9932 180.759C61.7562 181.237 61.6377 181.75 61.6377 182.297V183.176C61.6377 183.926 61.767 184.562 62.0255 185.083C62.2883 185.6 62.6524 185.994 63.1178 186.266C63.5832 186.533 64.124 186.667 64.7401 186.667C65.1409 186.667 65.5028 186.611 65.826 186.499C66.1535 186.382 66.4357 186.21 66.6727 185.981C66.9097 185.749 67.0928 185.46 67.2221 185.115L68.6958 185.529C68.5406 186.029 68.2799 186.468 67.9137 186.848C67.5474 187.222 67.095 187.515 66.5564 187.727C66.0177 187.933 65.4123 188.037 64.7401 188.037ZM73.4205 187.83L70.3956 177.902H71.9986L74.1444 185.503H74.2479L76.3679 177.902H77.9966L80.0908 185.477H80.1942L82.3401 177.902H83.943L80.9181 187.83H79.4186L77.2469 180.203H77.0918L74.9201 187.83H73.4205ZM100.334 178.729C100.192 178.294 100.005 177.904 99.772 177.56C99.5436 177.211 99.27 176.913 98.9511 176.668C98.6366 176.422 98.2789 176.235 97.8782 176.105C97.4775 175.976 97.0379 175.911 96.5596 175.911C95.7754 175.911 95.0623 176.114 94.4202 176.519C93.7782 176.924 93.2676 177.521 92.8884 178.309C92.5092 179.098 92.3196 180.065 92.3196 181.211C92.3196 182.358 92.5114 183.325 92.8949 184.113C93.2784 184.902 93.7976 185.499 94.4526 185.904C95.1075 186.309 95.8444 186.511 96.6631 186.511C97.4214 186.511 98.0893 186.35 98.6667 186.027C99.2484 185.699 99.7009 185.238 100.024 184.643C100.352 184.045 100.515 183.34 100.515 182.53L101.006 182.633H97.025V181.211H102.066V182.633C102.066 183.724 101.834 184.672 101.368 185.477C100.907 186.283 100.27 186.908 99.4553 187.352C98.6452 187.791 97.7144 188.011 96.6631 188.011C95.491 188.011 94.4612 187.735 93.5735 187.184C92.6902 186.632 92.0008 185.848 91.5052 184.831C91.014 183.814 90.7684 182.608 90.7684 181.211C90.7684 180.164 90.9084 179.223 91.1885 178.387C91.4729 177.547 91.8737 176.831 92.3907 176.241C92.9078 175.651 93.5197 175.198 94.2263 174.884C94.933 174.569 95.7108 174.412 96.5596 174.412C97.2577 174.412 97.9083 174.517 98.5116 174.729C99.1192 174.935 99.6599 175.231 100.134 175.614C100.612 175.993 101.011 176.448 101.33 176.978C101.649 177.504 101.868 178.087 101.989 178.729H100.334ZM107.526 188.063C106.897 188.063 106.326 187.944 105.814 187.707C105.301 187.466 104.894 187.119 104.592 186.667C104.29 186.21 104.14 185.658 104.14 185.012C104.14 184.443 104.252 183.982 104.476 183.629C104.7 183.271 104.999 182.991 105.374 182.788C105.749 182.586 106.163 182.435 106.615 182.336C107.072 182.233 107.531 182.151 107.992 182.09C108.595 182.013 109.084 181.955 109.459 181.916C109.838 181.873 110.114 181.802 110.286 181.703C110.463 181.604 110.551 181.431 110.551 181.186V181.134C110.551 180.496 110.377 180.001 110.028 179.647C109.683 179.294 109.16 179.117 108.457 179.117C107.729 179.117 107.158 179.277 106.744 179.596C106.331 179.914 106.04 180.255 105.872 180.617L104.424 180.1C104.683 179.496 105.027 179.027 105.458 178.691C105.893 178.35 106.367 178.113 106.88 177.98C107.397 177.842 107.906 177.773 108.406 177.773C108.724 177.773 109.091 177.812 109.504 177.889C109.922 177.962 110.325 178.115 110.713 178.348C111.105 178.581 111.43 178.932 111.689 179.402C111.947 179.871 112.077 180.5 112.077 181.289V187.83H110.551V186.486H110.474C110.37 186.701 110.198 186.932 109.957 187.177C109.715 187.423 109.394 187.632 108.994 187.804C108.593 187.976 108.104 188.063 107.526 188.063ZM107.759 186.692C108.362 186.692 108.871 186.574 109.285 186.337C109.703 186.1 110.017 185.794 110.228 185.419C110.444 185.044 110.551 184.65 110.551 184.236V182.84C110.487 182.918 110.345 182.989 110.125 183.053C109.909 183.114 109.659 183.168 109.375 183.215C109.095 183.258 108.821 183.297 108.554 183.331C108.291 183.362 108.078 183.387 107.914 183.409C107.518 183.461 107.147 183.545 106.803 183.661C106.462 183.773 106.186 183.943 105.975 184.172C105.768 184.396 105.665 184.702 105.665 185.089C105.665 185.619 105.861 186.02 106.253 186.292C106.65 186.559 107.152 186.692 107.759 186.692ZM114.861 187.83V177.902H116.335V179.453H116.464C116.671 178.923 117.005 178.512 117.466 178.219C117.927 177.922 118.48 177.773 119.127 177.773C119.782 177.773 120.327 177.922 120.762 178.219C121.201 178.512 121.544 178.923 121.79 179.453H121.893C122.147 178.941 122.529 178.533 123.037 178.232C123.546 177.926 124.155 177.773 124.866 177.773C125.754 177.773 126.48 178.051 127.044 178.607C127.609 179.158 127.891 180.018 127.891 181.186V187.83H126.366V181.186C126.366 180.453 126.165 179.929 125.765 179.615C125.364 179.3 124.892 179.143 124.349 179.143C123.651 179.143 123.11 179.354 122.727 179.777C122.343 180.194 122.152 180.724 122.152 181.367V187.83H120.6V181.03C120.6 180.466 120.417 180.011 120.051 179.667C119.685 179.318 119.213 179.143 118.636 179.143C118.239 179.143 117.869 179.249 117.524 179.46C117.183 179.671 116.908 179.964 116.696 180.339C116.49 180.709 116.386 181.138 116.386 181.625V187.83H114.861ZM134.843 188.037C133.886 188.037 133.061 187.826 132.367 187.403C131.678 186.977 131.145 186.382 130.771 185.619C130.4 184.852 130.215 183.961 130.215 182.944C130.215 181.927 130.4 181.03 130.771 180.255C131.145 179.475 131.667 178.867 132.335 178.432C133.007 177.993 133.791 177.773 134.687 177.773C135.205 177.773 135.715 177.859 136.219 178.031C136.723 178.204 137.182 178.484 137.596 178.872C138.01 179.255 138.339 179.764 138.585 180.397C138.831 181.03 138.953 181.81 138.953 182.737V183.383H131.301V182.065H137.402C137.402 181.504 137.29 181.005 137.066 180.565C136.846 180.126 136.532 179.779 136.122 179.524C135.717 179.27 135.239 179.143 134.687 179.143C134.08 179.143 133.554 179.294 133.11 179.596C132.671 179.893 132.333 180.281 132.096 180.759C131.859 181.237 131.74 181.75 131.74 182.297V183.176C131.74 183.926 131.869 184.562 132.128 185.083C132.391 185.6 132.755 185.994 133.22 186.266C133.686 186.533 134.226 186.667 134.843 186.667C135.243 186.667 135.605 186.611 135.928 186.499C136.256 186.382 136.538 186.21 136.775 185.981C137.012 185.749 137.195 185.46 137.325 185.115L138.798 185.529C138.643 186.029 138.382 186.468 138.016 186.848C137.65 187.222 137.197 187.515 136.659 187.727C136.12 187.933 135.515 188.037 134.843 188.037Z" fill="white"/>
<path d="M47.2167 26.7897V8.93548H57.9223V10.8534H49.3788V16.8862H57.1202V18.8041H49.3788V26.7897H47.2167ZM61.3462 26.7897V13.399H63.4037V26.7897H61.3462ZM62.3924 11.1673C61.9914 11.1673 61.6456 11.0307 61.355 10.7575C61.0702 10.4844 60.9278 10.156 60.9278 9.7724C60.9278 9.38881 61.0702 9.06044 61.355 8.78727C61.6456 8.51411 61.9914 8.37753 62.3924 8.37753C62.7934 8.37753 63.1363 8.51411 63.4211 8.78727C63.7117 9.06044 63.857 9.38881 63.857 9.7724C63.857 10.156 63.7117 10.4844 63.4211 10.7575C63.1363 11.0307 62.7934 11.1673 62.3924 11.1673ZM78.1216 13.399L73.1699 26.7897H71.0776L66.1258 13.399H68.3576L72.054 24.0697H72.1935L75.8899 13.399H78.1216ZM85.9721 27.0687C84.6819 27.0687 83.5689 26.7839 82.6332 26.2143C81.7032 25.639 80.9855 24.8369 80.4798 23.8082C79.98 22.7737 79.7301 21.5706 79.7301 20.199C79.7301 18.8274 79.98 17.6185 80.4798 16.5724C80.9855 15.5204 81.6887 14.7009 82.5896 14.1139C83.4962 13.5211 84.554 13.2247 85.7629 13.2247C86.4603 13.2247 87.149 13.3409 87.829 13.5734C88.509 13.8059 89.128 14.1836 89.6859 14.7067C90.2439 15.224 90.6885 15.9098 91.0198 16.7641C91.351 17.6185 91.5167 18.6705 91.5167 19.92V20.7918H81.1947V19.0134H89.4244C89.4244 18.2578 89.2733 17.5836 88.9711 16.9908C88.6747 16.398 88.2504 15.9301 87.6982 15.5872C87.1519 15.2443 86.5068 15.0729 85.7629 15.0729C84.9434 15.0729 84.2343 15.2763 83.6357 15.6831C83.0429 16.0841 82.5867 16.6072 82.267 17.2523C81.9473 17.8975 81.7875 18.5891 81.7875 19.3272V20.5128C81.7875 21.5241 81.9619 22.3814 82.3106 23.0846C82.6651 23.782 83.1562 24.3138 83.7839 24.68C84.4116 25.0403 85.141 25.2205 85.9721 25.2205C86.5126 25.2205 87.0008 25.1449 87.4367 24.9938C87.8784 24.8369 88.2591 24.6044 88.5788 24.2964C88.8984 23.9826 89.1454 23.5932 89.3198 23.1282L91.3075 23.6861C91.0982 24.3603 90.7466 24.9531 90.2526 25.4646C89.7586 25.9702 89.1483 26.3654 88.4218 26.6502C87.6953 26.9292 86.8788 27.0687 85.9721 27.0687Z" fill="white"/>
<path d="M61.3746 36.6765V54.5307H59.2823L49.5531 40.5124H49.3788V54.5307H47.2167V36.6765H49.309L59.0731 50.7297H59.2474V36.6765H61.3746ZM65.4219 54.5307V41.1401H67.4793V54.5307H65.4219ZM66.468 38.9083C66.067 38.9083 65.7212 38.7717 65.4306 38.4985C65.1458 38.2254 65.0034 37.897 65.0034 37.5134C65.0034 37.1298 65.1458 36.8015 65.4306 36.5283C65.7212 36.2551 66.067 36.1186 66.468 36.1186C66.869 36.1186 67.2119 36.2551 67.4967 36.5283C67.7873 36.8015 67.9326 37.1298 67.9326 37.5134C67.9326 37.897 67.7873 38.2254 67.4967 38.4985C67.2119 38.7717 66.869 38.9083 66.468 38.9083ZM76.6527 59.8312C75.6588 59.8312 74.8045 59.7034 74.0896 59.4476C73.3748 59.1977 72.779 58.8664 72.3025 58.4538C71.8317 58.047 71.4568 57.6111 71.1778 57.1461L72.8168 55.9954C73.0028 56.2395 73.2382 56.5184 73.523 56.8323C73.8077 57.1519 74.1971 57.428 74.6912 57.6605C75.191 57.8988 75.8448 58.0179 76.6527 58.0179C77.7337 58.0179 78.6258 57.7564 79.3291 57.2333C80.0323 56.7102 80.3839 55.8907 80.3839 54.7748V52.0549H80.2096C80.0585 52.299 79.8434 52.6012 79.5645 52.9615C79.2913 53.3161 78.8961 53.6328 78.3788 53.9118C77.8674 54.1849 77.1758 54.3215 76.304 54.3215C75.2229 54.3215 74.2524 54.0658 73.3922 53.5543C72.5378 53.0429 71.8607 52.299 71.3609 51.3226C70.8669 50.3462 70.6199 49.1605 70.6199 47.7657C70.6199 46.394 70.8611 45.1997 71.3435 44.1826C71.8259 43.1597 72.4972 42.3693 73.3573 41.8113C74.2175 41.2476 75.2113 40.9657 76.3388 40.9657C77.2106 40.9657 77.9022 41.111 78.4137 41.4016C78.931 41.6864 79.3262 42.0119 79.5993 42.378C79.8783 42.7383 80.0933 43.0348 80.2445 43.2672H80.4537V41.1401H82.4414V54.9143C82.4414 56.0651 82.1798 57.0008 81.6568 57.7215C81.1395 58.448 80.4421 58.9798 79.5645 59.3169C78.6927 59.6598 77.7221 59.8312 76.6527 59.8312ZM76.5829 52.4733C77.4082 52.4733 78.1057 52.2844 78.6752 51.9067C79.2448 51.5289 79.6778 50.9855 79.9742 50.2764C80.2706 49.5674 80.4188 48.7188 80.4188 47.7308C80.4188 46.766 80.2735 45.9146 79.9829 45.1764C79.6923 44.4383 79.2622 43.86 78.6927 43.4416C78.1231 43.0231 77.4199 42.8139 76.5829 42.8139C75.7111 42.8139 74.9847 43.0348 74.4035 43.4765C73.8281 43.9182 73.3951 44.511 73.1045 45.2549C72.8197 45.9988 72.6773 46.8241 72.6773 47.7308C72.6773 48.6607 72.8226 49.4831 73.1132 50.198C73.4096 50.907 73.8455 51.465 74.4209 51.8718C75.0021 52.2728 75.7228 52.4733 76.5829 52.4733ZM88.2649 46.4754V54.5307H86.2075V36.6765H88.2649V43.2324H88.4393C88.7531 42.5407 89.2239 41.9915 89.8516 41.5847C90.4851 41.172 91.3278 40.9657 92.3798 40.9657C93.2922 40.9657 94.0914 41.1488 94.7772 41.5149C95.463 41.8753 95.9948 42.4303 96.3725 43.1801C96.7561 43.924 96.9479 44.8713 96.9479 46.0221V54.5307H94.8905V46.1616C94.8905 45.098 94.6144 44.2756 94.0623 43.6944C93.516 43.1074 92.7575 42.8139 91.7869 42.8139C91.1128 42.8139 90.5083 42.9563 89.9736 43.2411C89.4447 43.5259 89.0263 43.9414 88.7182 44.4877C88.416 45.0341 88.2649 45.6966 88.2649 46.4754ZM106.535 41.1401V42.8836H99.596V41.1401H106.535ZM101.619 37.9319H103.676V50.6949C103.676 51.2761 103.76 51.712 103.929 52.0026C104.103 52.2873 104.324 52.4791 104.591 52.5779C104.865 52.6709 105.152 52.7174 105.454 52.7174C105.681 52.7174 105.867 52.7058 106.012 52.6826C106.158 52.6535 106.274 52.6302 106.361 52.6128L106.78 54.461C106.64 54.5133 106.445 54.5656 106.195 54.6179C105.946 54.676 105.629 54.7051 105.245 54.7051C104.664 54.7051 104.094 54.5801 103.536 54.3302C102.984 54.0803 102.525 53.6996 102.159 53.1882C101.799 52.6767 101.619 52.0316 101.619 51.2528V37.9319ZM118.876 44.139L117.027 44.6621C116.911 44.3541 116.74 44.0547 116.513 43.7642C116.292 43.4677 115.99 43.2236 115.606 43.0318C115.223 42.8401 114.732 42.7442 114.133 42.7442C113.314 42.7442 112.631 42.933 112.084 43.3108C111.544 43.6828 111.274 44.1565 111.274 44.7318C111.274 45.2433 111.46 45.6472 111.832 45.9436C112.204 46.24 112.785 46.487 113.575 46.6846L115.563 47.1728C116.76 47.4634 117.652 47.9081 118.239 48.5067C118.826 49.0995 119.12 49.8638 119.12 50.7995C119.12 51.5667 118.899 52.2525 118.457 52.8569C118.021 53.4614 117.411 53.9379 116.626 54.2866C115.842 54.6354 114.929 54.8097 113.889 54.8097C112.523 54.8097 111.393 54.5133 110.498 53.9205C109.603 53.3277 109.036 52.4617 108.798 51.3226L110.751 50.8344C110.937 51.555 111.288 52.0955 111.805 52.4559C112.328 52.8162 113.011 52.9964 113.854 52.9964C114.813 52.9964 115.574 52.793 116.138 52.3861C116.708 51.9735 116.993 51.4795 116.993 50.9041C116.993 50.4391 116.83 50.0498 116.504 49.7359C116.179 49.4163 115.679 49.178 115.005 49.021L112.773 48.498C111.547 48.2074 110.646 47.7569 110.071 47.1467C109.501 46.5306 109.216 45.7605 109.216 44.8365C109.216 44.0809 109.428 43.4125 109.853 42.8313C110.283 42.2501 110.867 41.7939 111.605 41.4626C112.349 41.1313 113.192 40.9657 114.133 40.9657C115.458 40.9657 116.499 41.2563 117.254 41.8375C118.015 42.4187 118.556 43.1859 118.876 44.139Z" fill="white"/>
<path d="M47.949 82.2718H45.6824L52.2382 64.4175H54.47L61.0259 82.2718H58.7592L53.4239 67.2421H53.2844L47.949 82.2718ZM48.7859 75.2975H57.9223V77.2154H48.7859V75.2975ZM68.5124 68.8811V70.6247H61.5729V68.8811H68.5124ZM63.5955 65.6729H65.6529V78.4359C65.6529 79.0171 65.7372 79.453 65.9057 79.7436C66.0801 80.0284 66.3009 80.2202 66.5683 80.319C66.8414 80.4119 67.1291 80.4584 67.4313 80.4584C67.658 80.4584 67.844 80.4468 67.9893 80.4236C68.1346 80.3945 68.2508 80.3713 68.338 80.3538L68.7565 82.202C68.617 82.2543 68.4223 82.3066 68.1724 82.3589C67.9224 82.4171 67.6057 82.4461 67.2221 82.4461C66.6409 82.4461 66.0713 82.3212 65.5134 82.0713C64.9613 81.8213 64.5021 81.4407 64.136 80.9292C63.7756 80.4178 63.5955 79.7726 63.5955 78.9938V65.6729Z" fill="white"/>
<path d="M47.2167 110.013V92.1585H57.9223V94.0765H49.3788V100.109H57.1202V102.027H49.3788V110.013H47.2167ZM61.2024 110.013V96.6221H63.1901V98.6447H63.3296C63.5737 97.9821 64.0154 97.4445 64.6547 97.0318C65.294 96.6192 66.0147 96.4129 66.8167 96.4129C66.9678 96.4129 67.1567 96.4158 67.3834 96.4216C67.6101 96.4274 67.7815 96.4361 67.8977 96.4477V98.54C67.828 98.5226 67.6682 98.4965 67.4183 98.4616C67.1742 98.4209 66.9155 98.4006 66.6424 98.4006C65.9914 98.4006 65.4102 98.5371 64.8988 98.8103C64.3931 99.0776 63.9921 99.4496 63.6957 99.9262C63.4051 100.397 63.2598 100.935 63.2598 101.539V110.013H61.2024ZM75.5433 110.292C74.2531 110.292 73.1401 110.007 72.2044 109.437C71.2745 108.862 70.5567 108.06 70.0511 107.031C69.5512 105.997 69.3013 104.794 69.3013 103.422C69.3013 102.05 69.5512 100.842 70.0511 99.7954C70.5567 98.7435 71.2599 97.924 72.1608 97.337C73.0674 96.7442 74.1252 96.4477 75.3341 96.4477C76.0315 96.4477 76.7202 96.564 77.4002 96.7965C78.0802 97.0289 78.6992 97.4067 79.2572 97.9298C79.8151 98.4471 80.2597 99.1329 80.591 99.9872C80.9223 100.842 81.0879 101.894 81.0879 103.143V104.015H70.7659V102.236H78.9956C78.9956 101.481 78.8445 100.807 78.5423 100.214C78.2459 99.6211 77.8216 99.1532 77.2695 98.8103C76.7232 98.4674 76.078 98.2959 75.3341 98.2959C74.5146 98.2959 73.8056 98.4994 73.2069 98.9062C72.6141 99.3072 72.1579 99.8303 71.8382 100.475C71.5186 101.121 71.3587 101.812 71.3587 102.55V103.736C71.3587 104.747 71.5331 105.604 71.8818 106.308C72.2363 107.005 72.7275 107.537 73.3551 107.903C73.9828 108.263 74.7122 108.444 75.5433 108.444C76.0838 108.444 76.572 108.368 77.0079 108.217C77.4496 108.06 77.8303 107.828 78.15 107.519C78.4696 107.206 78.7166 106.816 78.891 106.351L80.8787 106.909C80.6695 107.583 80.3178 108.176 79.8238 108.688C79.3298 109.193 78.7195 109.589 77.9931 109.873C77.2666 110.152 76.45 110.292 75.5433 110.292ZM89.274 110.292C88.1581 110.292 87.173 110.01 86.3186 109.446C85.4643 108.877 84.7959 108.075 84.3135 107.04C83.8311 106 83.5899 104.77 83.5899 103.352C83.5899 101.946 83.8311 100.725 84.3135 99.6908C84.7959 98.6563 85.4672 97.8571 86.3274 97.2934C87.1875 96.7296 88.1814 96.4477 89.3089 96.4477C90.1807 96.4477 90.8694 96.593 91.375 96.8836C91.8865 97.1684 92.2759 97.4939 92.5432 97.86C92.8164 98.2204 93.0285 98.5168 93.1796 98.7493H93.354V92.1585H95.4114V110.013H93.4237V107.955H93.1796C93.0285 108.199 92.8135 108.507 92.5345 108.879C92.2555 109.246 91.8574 109.574 91.3401 109.865C90.8229 110.149 90.1342 110.292 89.274 110.292ZM89.553 108.444C90.3783 108.444 91.0757 108.229 91.6453 107.798C92.2148 107.363 92.6478 106.761 92.9442 105.994C93.2406 105.221 93.3889 104.329 93.3889 103.317C93.3889 102.318 93.2436 101.443 92.953 100.693C92.6624 99.9378 92.2323 99.3508 91.6627 98.9323C91.0931 98.5081 90.3899 98.2959 89.553 98.2959C88.6812 98.2959 87.9547 98.5197 87.3735 98.9672C86.7981 99.4089 86.3651 100.01 86.0745 100.772C85.7898 101.527 85.6474 102.376 85.6474 103.317C85.6474 104.271 85.7927 105.137 86.0833 105.915C86.3797 106.688 86.8156 107.304 87.3909 107.764C87.9721 108.217 88.6928 108.444 89.553 108.444ZM104.522 110.292C103.406 110.292 102.421 110.01 101.566 109.446C100.712 108.877 100.044 108.075 99.5611 107.04C99.0787 106 98.8375 104.77 98.8375 103.352C98.8375 101.946 99.0787 100.725 99.5611 99.6908C100.044 98.6563 100.715 97.8571 101.575 97.2934C102.435 96.7296 103.429 96.4477 104.556 96.4477C105.428 96.4477 106.117 96.593 106.623 96.8836C107.134 97.1684 107.523 97.4939 107.791 97.86C108.064 98.2204 108.276 98.5168 108.427 98.7493H108.602V92.1585H110.659V110.013H108.671V107.955H108.427C108.276 108.199 108.061 108.507 107.782 108.879C107.503 109.246 107.105 109.574 106.588 109.865C106.07 110.149 105.382 110.292 104.522 110.292ZM104.801 108.444C105.626 108.444 106.323 108.229 106.893 107.798C107.462 107.363 107.895 106.761 108.192 105.994C108.488 105.221 108.636 104.329 108.636 103.317C108.636 102.318 108.491 101.443 108.201 100.693C107.91 99.9378 107.48 99.3508 106.91 98.9323C106.341 98.5081 105.637 98.2959 104.801 98.2959C103.929 98.2959 103.202 98.5197 102.621 98.9672C102.046 99.4089 101.613 100.01 101.322 100.772C101.037 101.527 100.895 102.376 100.895 103.317C100.895 104.271 101.04 105.137 101.331 105.915C101.627 106.688 102.063 107.304 102.639 107.764C103.22 108.217 103.94 108.444 104.801 108.444ZM116.038 115.034C115.689 115.034 115.378 115.005 115.105 114.947C114.832 114.895 114.643 114.842 114.538 114.79L115.062 112.977C115.561 113.105 116.003 113.151 116.387 113.116C116.77 113.081 117.11 112.91 117.407 112.602C117.709 112.3 117.985 111.809 118.235 111.129L118.618 110.083L113.667 96.6221H115.898L119.595 107.293H119.734L123.431 96.6221H125.662L119.978 111.966C119.723 112.657 119.406 113.23 119.028 113.683C118.65 114.142 118.212 114.482 117.712 114.703C117.218 114.924 116.66 115.034 116.038 115.034ZM130.157 92.1585V98.2959H128.239V92.1585H130.157ZM143.305 99.6211L141.457 100.144C141.341 99.8361 141.169 99.5368 140.943 99.2462C140.722 98.9498 140.42 98.7057 140.036 98.5139C139.653 98.3221 139.161 98.2262 138.563 98.2262C137.743 98.2262 137.06 98.4151 136.514 98.7929C135.974 99.1648 135.703 99.6385 135.703 100.214C135.703 100.725 135.889 101.129 136.261 101.426C136.633 101.722 137.214 101.969 138.005 102.167L139.993 102.655C141.19 102.945 142.082 103.39 142.669 103.989C143.256 104.582 143.549 105.346 143.549 106.282C143.549 107.049 143.329 107.735 142.887 108.339C142.451 108.943 141.841 109.42 141.056 109.769C140.271 110.117 139.359 110.292 138.319 110.292C136.953 110.292 135.822 109.995 134.927 109.403C134.032 108.81 133.466 107.944 133.227 106.805L135.18 106.316C135.366 107.037 135.718 107.578 136.235 107.938C136.758 108.298 137.441 108.478 138.284 108.478C139.243 108.478 140.004 108.275 140.568 107.868C141.137 107.456 141.422 106.962 141.422 106.386C141.422 105.921 141.26 105.532 140.934 105.218C140.609 104.898 140.109 104.66 139.435 104.503L137.203 103.98C135.976 103.689 135.076 103.239 134.5 102.629C133.931 102.013 133.646 101.243 133.646 100.318C133.646 99.5629 133.858 98.8946 134.282 98.3134C134.712 97.7322 135.296 97.2759 136.035 96.9447C136.779 96.6134 137.621 96.4477 138.563 96.4477C139.888 96.4477 140.928 96.7383 141.684 97.3195C142.445 97.9007 142.986 98.6679 143.305 99.6211Z" fill="white"/>
<path d="M57.7322 210.629H56.1292C56.0344 210.168 55.8685 209.763 55.6315 209.414C55.3989 209.065 55.1145 208.772 54.7784 208.535C54.4466 208.294 54.0782 208.113 53.6731 207.992C53.2681 207.872 52.8458 207.811 52.4063 207.811C51.6048 207.811 50.8788 208.014 50.2281 208.419C49.5818 208.824 49.0668 209.421 48.6833 210.209C48.3042 210.998 48.1146 211.965 48.1146 213.111C48.1146 214.258 48.3042 215.225 48.6833 216.014C49.0668 216.802 49.5818 217.399 50.2281 217.804C50.8788 218.209 51.6048 218.411 52.4063 218.411C52.8458 218.411 53.2681 218.351 53.6731 218.23C54.0782 218.11 54.4466 217.931 54.7784 217.694C55.1145 217.453 55.3989 217.158 55.6315 216.809C55.8685 216.455 56.0344 216.05 56.1292 215.593H57.7322C57.6115 216.27 57.3917 216.875 57.0729 217.41C56.754 217.944 56.3576 218.399 55.8836 218.773C55.4096 219.144 54.8775 219.426 54.2871 219.62C53.7011 219.814 53.0742 219.911 52.4063 219.911C51.2773 219.911 50.2733 219.635 49.3943 219.084C48.5153 218.532 47.8237 217.748 47.3196 216.731C46.8154 215.714 46.5633 214.508 46.5633 213.111C46.5633 211.715 46.8154 210.509 47.3196 209.492C47.8237 208.475 48.5153 207.691 49.3943 207.139C50.2733 206.588 51.2773 206.312 52.4063 206.312C53.0742 206.312 53.7011 206.409 54.2871 206.603C54.8775 206.797 55.4096 207.081 55.8836 207.456C56.3576 207.826 56.754 208.279 57.0729 208.813C57.3917 209.343 57.6115 209.949 57.7322 210.629ZM64.1487 219.937C63.2525 219.937 62.4661 219.724 61.7896 219.297C61.1174 218.87 60.5917 218.274 60.2125 217.507C59.8376 216.74 59.6502 215.843 59.6502 214.818C59.6502 213.784 59.8376 212.881 60.2125 212.11C60.5917 211.338 61.1174 210.739 61.7896 210.313C62.4661 209.886 63.2525 209.673 64.1487 209.673C65.045 209.673 65.8292 209.886 66.5014 210.313C67.1779 210.739 67.7036 211.338 68.0785 212.11C68.4577 212.881 68.6473 213.784 68.6473 214.818C68.6473 215.843 68.4577 216.74 68.0785 217.507C67.7036 218.274 67.1779 218.87 66.5014 219.297C65.8292 219.724 65.045 219.937 64.1487 219.937ZM64.1487 218.567C64.8295 218.567 65.3897 218.392 65.8292 218.043C66.2687 217.694 66.5941 217.235 66.8052 216.666C67.0163 216.098 67.1219 215.481 67.1219 214.818C67.1219 214.154 67.0163 213.536 66.8052 212.963C66.5941 212.39 66.2687 211.926 65.8292 211.573C65.3897 211.22 64.8295 211.043 64.1487 211.043C63.4679 211.043 62.9078 211.22 62.4682 211.573C62.0287 211.926 61.7034 212.39 61.4923 212.963C61.2811 213.536 61.1756 214.154 61.1756 214.818C61.1756 215.481 61.2811 216.098 61.4923 216.666C61.7034 217.235 62.0287 217.694 62.4682 218.043C62.9078 218.392 63.4679 218.567 64.1487 218.567ZM72.5011 213.758V219.73H70.9757V209.802H72.4494V211.353H72.5787C72.8114 210.849 73.1647 210.444 73.6387 210.138C74.1127 209.828 74.7245 209.673 75.4743 209.673C76.1465 209.673 76.7347 209.811 77.2388 210.087C77.743 210.358 78.1351 210.772 78.4152 211.328C78.6952 211.879 78.8353 212.577 78.8353 213.422V219.73H77.3099V213.525C77.3099 212.745 77.1074 212.138 76.7023 211.702C76.2973 211.263 75.7414 211.043 75.0348 211.043C74.5479 211.043 74.1127 211.149 73.7292 211.36C73.35 211.571 73.0505 211.879 72.8307 212.284C72.611 212.689 72.5011 213.18 72.5011 213.758ZM85.9402 209.802V211.095H80.7953V209.802H85.9402ZM82.2948 207.424H83.8202V216.886C83.8202 217.317 83.8827 217.64 84.0076 217.856C84.1369 218.067 84.3007 218.209 84.4989 218.282C84.7014 218.351 84.9147 218.386 85.1387 218.386C85.3068 218.386 85.4447 218.377 85.5524 218.36C85.6601 218.338 85.7463 218.321 85.8109 218.308L86.1212 219.678C86.0178 219.717 85.8734 219.756 85.6881 219.795C85.5029 219.838 85.268 219.859 84.9836 219.859C84.5527 219.859 84.1305 219.767 83.7168 219.581C83.3074 219.396 82.967 219.114 82.6956 218.735C82.4284 218.355 82.2948 217.877 82.2948 217.3V207.424ZM88.2347 219.73V209.802H89.7601V219.73H88.2347ZM89.0103 208.148C88.713 208.148 88.4566 208.046 88.2412 207.844C88.0301 207.641 87.9245 207.398 87.9245 207.113C87.9245 206.829 88.0301 206.586 88.2412 206.383C88.4566 206.18 88.713 206.079 89.0103 206.079C89.3077 206.079 89.5619 206.18 89.773 206.383C89.9885 206.586 90.0962 206.829 90.0962 207.113C90.0962 207.398 89.9885 207.641 89.773 207.844C89.5619 208.046 89.3077 208.148 89.0103 208.148ZM94.0793 213.758V219.73H92.5539V209.802H94.0276V211.353H94.1569C94.3895 210.849 94.7429 210.444 95.2169 210.138C95.6908 209.828 96.3027 209.673 97.0525 209.673C97.7247 209.673 98.3129 209.811 98.817 210.087C99.3211 210.358 99.7133 210.772 99.9933 211.328C100.273 211.879 100.413 212.577 100.413 213.422V219.73H98.8881V213.525C98.8881 212.745 98.6856 212.138 98.2805 211.702C97.8755 211.263 97.3196 211.043 96.613 211.043C96.1261 211.043 95.6908 211.149 95.3074 211.36C94.9282 211.571 94.6287 211.879 94.4089 212.284C94.1892 212.689 94.0793 213.18 94.0793 213.758ZM109.457 215.671V209.802H110.983V219.73H109.457V218.049H109.354C109.121 218.554 108.759 218.982 108.268 219.336C107.777 219.685 107.156 219.859 106.407 219.859C105.786 219.859 105.235 219.724 104.752 219.452C104.269 219.176 103.89 218.763 103.614 218.211C103.339 217.655 103.201 216.955 103.201 216.11V209.802H104.726V216.007C104.726 216.731 104.929 217.308 105.334 217.739C105.743 218.17 106.264 218.386 106.898 218.386C107.277 218.386 107.663 218.289 108.055 218.095C108.451 217.901 108.783 217.604 109.05 217.203C109.322 216.802 109.457 216.291 109.457 215.671ZM117.939 219.937C116.982 219.937 116.157 219.726 115.464 219.303C114.774 218.877 114.242 218.282 113.867 217.519C113.497 216.752 113.311 215.861 113.311 214.844C113.311 213.827 113.497 212.93 113.867 212.155C114.242 211.375 114.763 210.767 115.431 210.332C116.103 209.893 116.888 209.673 117.784 209.673C118.301 209.673 118.812 209.759 119.316 209.931C119.82 210.104 120.279 210.384 120.693 210.772C121.106 211.155 121.436 211.664 121.681 212.297C121.927 212.93 122.05 213.71 122.05 214.637V215.283H114.397V213.965H120.499C120.499 213.404 120.387 212.905 120.163 212.465C119.943 212.026 119.628 211.679 119.219 211.424C118.814 211.17 118.336 211.043 117.784 211.043C117.176 211.043 116.651 211.194 116.207 211.496C115.767 211.793 115.429 212.181 115.192 212.659C114.955 213.137 114.837 213.65 114.837 214.197V215.076C114.837 215.826 114.966 216.462 115.224 216.983C115.487 217.5 115.851 217.894 116.317 218.166C116.782 218.433 117.323 218.567 117.939 218.567C118.34 218.567 118.702 218.511 119.025 218.399C119.352 218.282 119.635 218.11 119.872 217.881C120.109 217.649 120.292 217.36 120.421 217.015L121.895 217.429C121.74 217.929 121.479 218.368 121.113 218.748C120.746 219.122 120.294 219.415 119.755 219.627C119.217 219.833 118.611 219.937 117.939 219.937Z" fill="white"/>
<path d="M51.2429 251.911C50.6999 251.902 50.157 251.799 49.6141 251.601C49.0711 251.402 48.5756 251.069 48.1275 250.599C47.6794 250.125 47.3196 249.485 47.0481 248.679C46.7766 247.869 46.6409 246.852 46.6409 245.628C46.6409 244.456 46.7508 243.418 46.9705 242.513C47.1903 241.604 47.5092 240.839 47.9271 240.219C48.3451 239.594 48.8492 239.12 49.4396 238.797C50.0342 238.473 50.7042 238.312 51.4497 238.312C52.1908 238.312 52.8501 238.461 53.4275 238.758C54.0092 239.051 54.4832 239.46 54.8495 239.986C55.2157 240.512 55.4527 241.117 55.5604 241.802H53.9834C53.8369 241.208 53.5525 240.714 53.1302 240.322C52.7079 239.93 52.1477 239.734 51.4497 239.734C50.4242 239.734 49.6162 240.18 49.0259 241.072C48.4399 241.964 48.1447 243.215 48.1404 244.827H48.2438C48.4851 244.461 48.7717 244.148 49.1035 243.89C49.4396 243.627 49.8101 243.424 50.2152 243.282C50.6202 243.14 51.049 243.069 51.5014 243.069C52.2598 243.069 52.9535 243.259 53.5826 243.638C54.2117 244.013 54.7159 244.532 55.0951 245.195C55.4743 245.855 55.6639 246.611 55.6639 247.464C55.6639 248.283 55.4807 249.033 55.1145 249.713C54.7482 250.39 54.2333 250.929 53.5697 251.329C52.9104 251.726 52.1348 251.92 51.2429 251.911ZM51.2429 250.489C51.7858 250.489 52.2727 250.353 52.7036 250.082C53.1388 249.81 53.4814 249.446 53.7313 248.989C53.9855 248.533 54.1126 248.024 54.1126 247.464C54.1126 246.917 53.9898 246.419 53.7442 245.971C53.5029 245.519 53.169 245.159 52.7424 244.892C52.3201 244.625 51.8375 244.491 51.2946 244.491C50.8852 244.491 50.5039 244.573 50.1505 244.737C49.7972 244.896 49.487 245.116 49.2198 245.396C48.957 245.676 48.7501 245.997 48.5993 246.359C48.4485 246.717 48.3731 247.094 48.3731 247.49C48.3731 248.016 48.4959 248.507 48.7415 248.964C48.9914 249.42 49.3318 249.789 49.7627 250.069C50.1979 250.349 50.6913 250.489 51.2429 250.489ZM62.549 241.802V243.095H57.4041V241.802H62.549ZM58.9037 239.424H60.429V248.886C60.429 249.317 60.4915 249.64 60.6165 249.856C60.7457 250.067 60.9095 250.209 61.1077 250.282C61.3102 250.351 61.5235 250.386 61.7476 250.386C61.9156 250.386 62.0535 250.377 62.1612 250.36C62.269 250.338 62.3551 250.321 62.4198 250.308L62.73 251.678C62.6266 251.717 62.4822 251.756 62.297 251.795C62.1117 251.838 61.8768 251.859 61.5924 251.859C61.1615 251.859 60.7393 251.767 60.3256 251.581C59.9163 251.396 59.5759 251.114 59.3044 250.735C59.0372 250.355 58.9037 249.877 58.9037 249.3V239.424ZM66.5822 245.758V251.73H65.0568V238.493H66.5822V243.353H66.7115C66.9442 242.841 67.2932 242.433 67.7586 242.132C68.2282 241.826 68.853 241.673 69.633 241.673C70.3095 241.673 70.9019 241.809 71.4104 242.08C71.9189 242.347 72.3131 242.759 72.5932 243.315C72.8776 243.866 73.0198 244.568 73.0198 245.422V251.73H71.4944V245.525C71.4944 244.737 71.2898 244.127 70.8804 243.696C70.4754 243.261 69.913 243.043 69.1934 243.043C68.6936 243.043 68.2455 243.149 67.8491 243.36C67.4569 243.571 67.1467 243.879 66.9183 244.284C66.6943 244.689 66.5822 245.18 66.5822 245.758ZM91.6329 238.493V251.73H90.0817L82.8685 241.337H82.7392V251.73H81.1363V238.493H82.6875L89.9265 248.912H90.0558V238.493H91.6329ZM94.6335 251.73V241.802H96.1589V251.73H94.6335ZM95.4091 240.148C95.1118 240.148 94.8554 240.046 94.64 239.844C94.4289 239.641 94.3233 239.398 94.3233 239.113C94.3233 238.829 94.4289 238.586 94.64 238.383C94.8554 238.18 95.1118 238.079 95.4091 238.079C95.7065 238.079 95.9607 238.18 96.1718 238.383C96.3873 238.586 96.495 238.829 96.495 239.113C96.495 239.398 96.3873 239.641 96.1718 239.844C95.9607 240.046 95.7065 240.148 95.4091 240.148ZM102.96 255.66C102.223 255.66 101.59 255.565 101.06 255.375C100.53 255.19 100.088 254.944 99.7348 254.639C99.3858 254.337 99.1079 254.014 98.901 253.669L100.116 252.816C100.254 252.997 100.429 253.204 100.64 253.436C100.851 253.673 101.14 253.878 101.506 254.05C101.876 254.227 102.361 254.315 102.96 254.315C103.762 254.315 104.423 254.121 104.944 253.734C105.466 253.346 105.726 252.738 105.726 251.911V249.894H105.597C105.485 250.075 105.326 250.299 105.119 250.567C104.916 250.829 104.623 251.064 104.24 251.271C103.861 251.474 103.348 251.575 102.702 251.575C101.9 251.575 101.18 251.385 100.543 251.006C99.9093 250.627 99.4073 250.075 99.0368 249.351C98.6705 248.628 98.4874 247.749 98.4874 246.714C98.4874 245.697 98.6662 244.812 99.0238 244.058C99.3815 243.3 99.8792 242.713 100.517 242.3C101.155 241.882 101.891 241.673 102.727 241.673C103.374 241.673 103.886 241.781 104.266 241.996C104.649 242.207 104.942 242.448 105.145 242.72C105.352 242.987 105.511 243.207 105.623 243.379H105.778V241.802H107.252V252.014C107.252 252.868 107.058 253.561 106.67 254.096C106.287 254.634 105.77 255.028 105.119 255.278C104.473 255.533 103.753 255.66 102.96 255.66ZM102.908 250.205C103.52 250.205 104.037 250.065 104.46 249.784C104.882 249.504 105.203 249.102 105.423 248.576C105.642 248.05 105.752 247.421 105.752 246.688C105.752 245.973 105.645 245.342 105.429 244.795C105.214 244.247 104.895 243.819 104.473 243.508C104.05 243.198 103.529 243.043 102.908 243.043C102.262 243.043 101.723 243.207 101.292 243.534C100.866 243.862 100.545 244.301 100.329 244.853C100.118 245.404 100.013 246.016 100.013 246.688C100.013 247.378 100.12 247.988 100.336 248.518C100.556 249.043 100.879 249.457 101.305 249.759C101.736 250.056 102.271 250.205 102.908 250.205ZM111.569 245.758V251.73H110.044V238.493H111.569V243.353H111.699C111.931 242.841 112.28 242.433 112.746 242.132C113.215 241.826 113.84 241.673 114.62 241.673C115.297 241.673 115.889 241.809 116.398 242.08C116.906 242.347 117.3 242.759 117.58 243.315C117.865 243.866 118.007 244.568 118.007 245.422V251.73H116.482V245.525C116.482 244.737 116.277 244.127 115.868 243.696C115.463 243.261 114.9 243.043 114.181 243.043C113.681 243.043 113.233 243.149 112.836 243.36C112.444 243.571 112.134 243.879 111.905 244.284C111.681 244.689 111.569 245.18 111.569 245.758ZM125.115 241.802V243.095H119.97V241.802H125.115ZM121.47 239.424H122.995V248.886C122.995 249.317 123.058 249.64 123.183 249.856C123.312 250.067 123.476 250.209 123.674 250.282C123.876 250.351 124.09 250.386 124.314 250.386C124.482 250.386 124.62 250.377 124.727 250.36C124.835 250.338 124.921 250.321 124.986 250.308L125.296 251.678C125.193 251.717 125.048 251.756 124.863 251.795C124.678 251.838 124.443 251.859 124.159 251.859C123.728 251.859 123.305 251.767 122.892 251.581C122.482 251.396 122.142 251.114 121.87 250.735C121.603 250.355 121.47 249.877 121.47 249.3V239.424Z" fill="white"/>
</g>
<defs>
<clipPath id="clip0_0_1">
<rect width="468.919" height="311.374" fill="white"/>
</clipPath>
</defs>
</svg>
